<svg xmlns="http://www.w3.org/2000/svg" xlink="http://www.w3.org/1999/xlink" width="0" height="0" style="display:none;"><symbol viewBox="0 0 24 24" id="twitter-fill"><path fill="none" d="M0 0h24v24H0z"/><path d="M22.162 5.656a8.384 8.384 0 0 1-2.402.658A4.196 4.196 0 0 0 21.6 4c-.82.488-1.719.83-2.656 1.015a4.182 4.182 0 0 0-7.126 3.814 11.874 11.874 0 0 1-8.62-4.37 4.168 4.168 0 0 0-.566 2.103c0 1.45.738 2.731 1.86 3.481a4.168 4.168 0 0 1-1.894-.523v.052a4.185 4.185 0 0 0 3.355 4.101 4.21 4.21 0 0 1-1.89.072A4.185 4.185 0 0 0 7.97 16.65a8.394 8.394 0 0 1-6.191 1.732 11.83 11.83 0 0 0 6.41 1.88c7.693 0 11.9-6.373 11.9-11.9 0-.18-.005-.362-.013-.54a8.496 8.496 0 0 0 2.087-2.165z"/></symbol><symbol viewBox="0 0 24 24" id="google-fill"><path fill="none" d="M0 0h24v24H0z"/><path d="M3.064 7.51A9.996 9.996 0 0 1 12 2c2.695 0 4.959.99 6.69 2.605l-2.867 2.868C14.786 6.482 13.468 5.977 12 5.977c-2.605 0-4.81 1.76-5.595 4.123-.2.6-.314 1.24-.314 1.9 0 .66.114 1.3.314 1.9.786 2.364 2.99 4.123 5.595 4.123 1.345 0 2.49-.355 3.386-.955a4.6 4.6 0 0 0 1.996-3.018H12v-3.868h9.418c.118.654.182 1.336.182 2.045 0 3.046-1.09 5.61-2.982 7.35C16.964 21.105 14.7 22 12 22A9.996 9.996 0 0 1 2 12c0-1.614.386-3.14 1.064-4.49z"/></symbol><symbol viewBox="0 0 24 24" id="facebook-fill"><path fill="none" d="M0 0h24v24H0z"/><path d="M14 13.5h2.5l1-4H14v-2c0-1.03 0-2 2-2h1.5V2.14c-.326-.043-1.557-.14-2.857-.14C11.928 2 10 3.657 10 6.7v2.8H7v4h3V22h4v-8.5z"/></symbol><symbol viewBox="0 0 24 24" id="instagram-fill"><path fill="none" d="M0 0h24v24H0z"/><path d="M12 2c2.717 0 3.056.01 4.122.06 1.065.05 1.79.217 2.428.465.66.254 1.216.598 1.772 1.153a4.908 4.908 0 0 1 1.153 1.772c.247.637.415 1.363.465 2.428.047 1.066.06 1.405.06 4.122 0 2.717-.01 3.056-.06 4.122-.05 1.065-.218 1.79-.465 2.428a4.883 4.883 0 0 1-1.153 1.772 4.915 4.915 0 0 1-1.772 1.153c-.637.247-1.363.415-2.428.465-1.066.047-1.405.06-4.122.06-2.717 0-3.056-.01-4.122-.06-1.065-.05-1.79-.218-2.428-.465a4.89 4.89 0 0 1-1.772-1.153 4.904 4.904 0 0 1-1.153-1.772c-.248-.637-.415-1.363-.465-2.428C2.013 15.056 2 14.717 2 12c0-2.717.01-3.056.06-4.122.05-1.066.217-1.79.465-2.428a4.88 4.88 0 0 1 1.153-1.772A4.897 4.897 0 0 1 5.45 2.525c.638-.248 1.362-.415 2.428-.465C8.944 2.013 9.283 2 12 2zm0 5a5 5 0 1 0 0 10 5 5 0 0 0 0-10zm6.5-.25a1.25 1.25 0 0 0-2.5 0 1.25 1.25 0 0 0 2.5 0zM12 9a3 3 0 1 1 0 6 3 3 0 0 1 0-6z"/></symbol></svg>