<?xml version="1.0" encoding="utf-8"?>
<!-- Generator: Adobe Illustrator 24.0.0, SVG Export Plug-In . SVG Version: 6.00 Build 0)  -->
<svg version="1.1" id="图层_1" xmlns="http://www.w3.org/2000/svg" xmlns:xlink="http://www.w3.org/1999/xlink" x="0px" y="0px"
	 width="100px" height="45px" viewBox="0 0 100 45" style="enable-background:new 0 0 100 45;" xml:space="preserve">
<style type="text/css">
	.st0{fill:#00A1E9;}
	.st1{fill:#3F3B3A;}
</style>
<g>
	<path class="st0" d="M6.9,5.4c-3.1,0-5.5,2.4-5.5,5.5v23.2c0,3,2.5,5.5,5.5,5.5h23.4c3.1,0,5.5-2.5,5.5-5.5v-0.2
		c-0.1,0-9-3.7-13.5-5.8c-3,3.7-7,5.9-11,5.9c-6.9,0-9.2-6-6-9.9c0.7-0.9,1.9-1.7,3.8-2.1c2.9-0.7,7.6,0.4,12,1.9
		c0.8-1.4,1.4-3,1.9-4.7H9.6v-1.4h7v-2.4H8.1V14h8.4v-3.5c0,0,0-0.6,0.6-0.6h3.4v4h8.3v1.4h-8.3v2.4h6.8c-0.7,2.6-1.6,5.1-2.9,7.2
		c2.1,0.7,3.9,1.4,5.3,1.9c4.6,1.5,5.9,1.7,6.1,1.7V10.9c0-3-2.5-5.5-5.5-5.5L6.9,5.4L6.9,5.4z M10.6,23.9c-0.3,0-0.6,0-0.9,0
		c-0.9,0.1-2.5,0.5-3.4,1.2c-2.6,2.3-1.1,6.5,4.3,6.5c3.1,0,6.2-2,8.7-5.1C16.2,25,13.5,23.9,10.6,23.9L10.6,23.9z"/>
	<path class="st1" d="M95.8,29.2l-1.5,3.3l-1.6-3.3h-1.5l2.4,4.6V37h1.4v-3.2l0,0l2.4-4.6L95.8,29.2z M84.5,31.2l1.1,3.2h-2.2
		L84.5,31.2z M85.9,35.4l0.5,1.6h1.5L85,29.2h-1.1L81,37h1.5l0.5-1.6H85.9z M75,32.9h-1.6v-2.7H75c0.8,0,1.3,0.7,1.3,1.3
		C76.2,32.2,75.8,32.9,75,32.9 M75,29.2h-3V37h1.4v-3H75c1.5,0,2.6-1,2.6-2.4C77.6,30.2,76.6,29.2,75,29.2 M64.9,37h1.4v-7.8h-1.4
		V37z M54.9,29.2V37h4.7v-1.1h-3.3v-6.7L54.9,29.2z M46.9,31.2l1.1,3.2h-2.2L46.9,31.2z M48.3,35.4l0.5,1.6h1.5l-2.9-7.8h-1.1
		L43.4,37h1.5l0.5-1.6H48.3z M58.3,13.9h-6.1v-2.2h7v-1.3h-7V7.7h-3.1c-0.3,0-0.6,0.3-0.6,0.6v2.1h-7v1.3h7v2.2h-5.9v1.3h11.7
		c0,0-0.6,2.5-3.9,5.2c-2.9-2.2-3.8-3.9-3.8-3.9h-3.1c1.3,2.2,3.1,3.9,5,5.3c-1.8,1.2-4.1,2.3-7.1,3.2v1.6c0,0,4.6-0.9,9.1-3.5
		c4.5,2.6,9,3.5,9,3.5v-1.5c-2.9-1-5.2-2.2-6.9-3.3C55.1,20,57.3,17.4,58.3,13.9 M77.9,8h-3.1v3.3H67v1.3h7.8v11.8
		c0,0.3-0.2,0.5-0.5,0.5h-1.6v1.4h4.1c0.6,0,1.2-0.6,1.2-1.2V12.6h1.3v-1.3h-1.3L77.9,8z M71.3,14.8c-0.1-0.2-0.4-0.4-0.6-0.4H68
		l2,6.4h3.1L71.3,14.8z M63.5,7.8l-3.6,8.5h2.8v10.1h3V13h-1.1l2.3-5.2L63.5,7.8z M98.7,26l-1.1-3.7c-0.1-0.2-0.3-0.4-0.5-0.4h-2.9
		l0.9,2.9h-3.5v-5.5h6.8v-1.3h-6.8v-2.6h6.8v-1.3H81.3v1.3h6.8v2.6h-6.8v1.3h6.8v5.5h-6.8V26L98.7,26L98.7,26L98.7,26z M84.9,10.8
		h9.9v1.9h3.5v-2.3c0,0,0,0,0,0c0-0.5-0.4-0.9-0.9-0.9h-5.7V7.7H88v1.8h-6.6v3.3h3.5L84.9,10.8z"/>
</g>
</svg>
