<?xml version="1.0" encoding="utf-8"?>
<!-- Generator: Adobe Illustrator 24.0.0, SVG Export Plug-In . SVG Version: 6.00 Build 0)  -->
<svg version="1.1" id="图层_1" xmlns="http://www.w3.org/2000/svg" xmlns:xlink="http://www.w3.org/1999/xlink" x="0px" y="0px"
	 width="100px" height="45px" viewBox="0 0 100 45" style="enable-background:new 0 0 100 45;" xml:space="preserve">
<style type="text/css">
	.st0{fill:#393738;}
	.st1{fill:#00AC1C;}
</style>
<g>
	<path class="st0" d="M41.4,18.9c1.1-1.2,2-2.7,2.7-4.4l0.9,0.4c-0.4,0.7-0.7,1.4-1.1,2.1v7.5h-1v-6c-0.4,0.6-0.8,1.1-1.2,1.6
		C41.7,19.7,41.6,19.3,41.4,18.9L41.4,18.9z M41.5,14.3c1.2-1.2,2.1-2.5,2.7-3.7l0.9,0.5c-0.8,1.6-1.9,3.1-3.2,4.3
		C41.8,15,41.6,14.7,41.5,14.3z M48.7,19.9h-1.9v0.7c0,1.7-0.5,2.9-1.4,3.7c-0.2-0.3-0.4-0.6-0.6-0.9c0.7-0.5,1.1-1.4,1.1-2.9v-1.5
		h3.8v2.5c0.4-0.4,0.9-0.8,1.5-1.3c0.1,0.4,0.2,0.8,0.2,1.1c-0.5,0.4-1.1,0.9-1.8,1.5c-0.2,0.2-0.4,0.4-0.6,0.6l-0.7-0.9
		c0.2-0.2,0.4-0.6,0.4-1L48.7,19.9L48.7,19.9z M45.4,15.3v-3.5h0.9v2.5h1.2v-3.6h0.9v3.6h1.2v-2.5h0.9v4h-0.9v-0.5H45.4z M45.7,16.6
		h4.6v1h-4.6L45.7,16.6L45.7,16.6z M52.2,10.5l1,0.2c-0.2,0.9-0.3,1.7-0.5,2.5h3.1v1H55c-0.2,2.7-0.7,4.9-1.4,6.5
		c0.6,1.1,1.3,2,2.2,2.7c-0.2,0.4-0.4,0.7-0.6,1.1c-0.8-0.8-1.5-1.7-2.1-2.8c-0.6,1-1.3,1.9-2.2,2.9c-0.2-0.3-0.4-0.6-0.7-0.9
		c1-1,1.8-2,2.4-3.1c-0.5-1.3-0.9-2.8-1-4.4c-0.2,0.4-0.3,0.7-0.5,1.1c-0.2-0.2-0.4-0.5-0.7-0.7C51.3,14.9,51.9,12.9,52.2,10.5z
		 M54,14.2h-1.7l0,0.1c0,1.9,0.3,3.7,0.8,5.1C53.5,18.3,53.8,16.5,54,14.2z M56.1,17.3c1.4-2.1,2.4-4.4,3.2-6.9l1.1,0.3
		c-0.4,1.3-0.9,2.5-1.4,3.6v10.2h-1v-8.2c-0.4,0.8-0.9,1.5-1.4,2.1L56.1,17.3z M60.2,12.4h4.7c-0.3-0.5-0.6-1-0.9-1.5l1-0.5
		c0.3,0.5,0.7,1.1,1,1.6l-0.6,0.3h4.9v1H60.2L60.2,12.4L60.2,12.4z M61,14.7h8.4v1H61L61,14.7L61,14.7z M61,17h8.4v1H61L61,17L61,17
		z M61.2,19.3h8.1v5.2h-1.1v-0.9h-5.9v0.9h-1.1C61.2,24.6,61.2,19.3,61.2,19.3z M68.2,20.3h-5.9v2.4h5.9
		C68.2,22.7,68.2,20.3,68.2,20.3z M70.9,12.5h6.5v-2.1h1.2v2.1h6.2v1h-6.2v2.1h4v1c-0.9,1.9-2.1,3.5-3.6,4.7c1.6,0.8,3.6,1.4,6,1.8
		c-0.3,0.5-0.6,0.9-0.8,1.2c-2.7-0.5-4.8-1.3-6.3-2.3c-1.6,1-3.7,1.8-6.4,2.5c-0.2-0.4-0.4-0.8-0.6-1.1c2.6-0.6,4.6-1.3,6.1-2.1
		c-1.4-1.2-2.4-2.8-3.2-4.7h-1.4v-1h5.1v-2.1h-6.5L70.9,12.5L70.9,12.5z M81.2,16.7h-6.3c0.7,1.7,1.7,3.1,3,4.1
		C79.4,19.6,80.5,18.3,81.2,16.7z M85.4,17.3c1.3-1.9,2.4-4.1,3.3-6.8l1.2,0.4c-0.4,1.1-0.8,2.1-1.2,3v10.6h-1.1v-8.4
		c-0.5,0.9-1.1,1.8-1.6,2.5C85.7,18,85.5,17.5,85.4,17.3z M89.5,13.7h6.6v-3.1h1.2v3.1h2.1v1.1h-2.1V22c0,1.5-0.7,2.2-2,2.3
		c-0.4,0-1.2,0-2.1,0C93,23.9,93,23.5,92.9,23c0.9,0.1,1.6,0.1,2.1,0.1c0.4,0,0.7-0.1,0.9-0.3c0.2-0.2,0.2-0.6,0.2-1.1v-6.9h-6.6
		V13.7z M90.5,17.1l1-0.6c0.6,0.8,1.3,1.9,2.1,3.3l-1,0.6C91.8,19.1,91.1,18,90.5,17.1L90.5,17.1z M52.9,28.5l-2,7h-1.1l-1.4-5.1
		c-0.1-0.2-0.1-0.5-0.1-0.7h0c0,0.2-0.1,0.5-0.1,0.7l-1.4,5.1h-1.1l-2-7h1l1.4,5.3c0.1,0.2,0.1,0.5,0.1,0.7h0c0-0.2,0.1-0.4,0.1-0.7
		l1.5-5.3h0.9l1.4,5.3c0.1,0.2,0.1,0.4,0.1,0.7h0c0-0.2,0.1-0.4,0.1-0.7l1.4-5.3H52.9z M57.7,33.2h-3.5c0,0.5,0.2,0.9,0.4,1.2
		c0.3,0.3,0.7,0.4,1.2,0.4c0.6,0,1.1-0.2,1.6-0.5v0.8c-0.4,0.3-1,0.5-1.7,0.5c-0.7,0-1.3-0.2-1.7-0.7c-0.4-0.5-0.6-1.1-0.6-1.9
		c0-0.8,0.2-1.4,0.7-1.9c0.4-0.5,1-0.7,1.7-0.7s1.2,0.2,1.5,0.6c0.4,0.4,0.6,1,0.6,1.8L57.7,33.2L57.7,33.2z M56.8,32.5
		c0-0.4-0.1-0.8-0.3-1.1c-0.2-0.2-0.5-0.4-0.9-0.4c-0.4,0-0.7,0.1-0.9,0.4c-0.2,0.3-0.4,0.6-0.5,1C54.2,32.5,56.8,32.5,56.8,32.5z
		 M63.8,35.2c-0.5,0.3-1.2,0.4-1.9,0.4c-1,0-1.8-0.3-2.4-1s-0.9-1.5-0.9-2.5c0-1.1,0.3-2,1-2.7c0.7-0.7,1.5-1,2.6-1
		c0.7,0,1.2,0.1,1.7,0.3v0.9c-0.5-0.3-1.1-0.4-1.7-0.4c-0.8,0-1.4,0.3-1.9,0.8c-0.5,0.5-0.7,1.2-0.7,2.1c0,0.8,0.2,1.5,0.7,2
		c0.5,0.5,1.1,0.7,1.8,0.7c0.7,0,1.3-0.2,1.8-0.5L63.8,35.2L63.8,35.2z M69.3,35.5h-0.9v-2.9c0-1-0.4-1.5-1.1-1.5
		c-0.4,0-0.7,0.1-1,0.4c-0.3,0.3-0.4,0.7-0.4,1.1v2.8H65v-7.4h0.9v3.2h0c0.4-0.6,0.9-0.9,1.6-0.9c1.1,0,1.7,0.7,1.7,2.1L69.3,35.5
		L69.3,35.5z M70.9,30.8c0.5-0.3,1.1-0.5,1.7-0.5c1.2,0,1.8,0.6,1.8,1.9v3.2h-0.9v-0.8h0c-0.3,0.6-0.9,0.9-1.5,0.9
		c-0.5,0-0.9-0.1-1.2-0.4c-0.3-0.3-0.4-0.6-0.4-1.1c0-0.9,0.6-1.5,1.7-1.6l1.5-0.2c0-0.8-0.3-1.2-1-1.2c-0.6,0-1.1,0.2-1.6,0.6
		L70.9,30.8L70.9,30.8z M72.4,33.1c-0.4,0.1-0.7,0.2-0.9,0.3c-0.2,0.1-0.2,0.4-0.2,0.6c0,0.2,0.1,0.4,0.2,0.6
		c0.2,0.2,0.4,0.2,0.7,0.2c0.4,0,0.7-0.1,1-0.4c0.2-0.3,0.4-0.6,0.4-1V33L72.4,33.1L72.4,33.1z M78.3,35.4c-0.2,0.1-0.4,0.2-0.8,0.2
		c-0.9,0-1.3-0.5-1.3-1.5v-2.9h-0.9v-0.7h0.9v-1.2l0.9-0.3v1.5h1.2v0.7h-1.2v2.7c0,0.3,0.1,0.6,0.2,0.7c0.1,0.1,0.3,0.2,0.6,0.2
		c0.2,0,0.4-0.1,0.5-0.2V35.4z M83.1,32.9v2.6h-0.9v-7h2c0.7,0,1.3,0.2,1.8,0.6c0.4,0.4,0.6,0.9,0.6,1.6c0,0.7-0.2,1.2-0.7,1.7
		s-1.1,0.6-1.8,0.6L83.1,32.9L83.1,32.9z M83.1,29.3v2.8H84c0.6,0,1-0.1,1.3-0.4c0.3-0.2,0.4-0.6,0.4-1.1c0-0.9-0.5-1.4-1.6-1.4
		H83.1z M87.6,30.8c0.5-0.3,1.1-0.5,1.7-0.5c1.2,0,1.8,0.6,1.8,1.9v3.2h-0.9v-0.8h0c-0.3,0.6-0.9,0.9-1.5,0.9
		c-0.5,0-0.9-0.1-1.2-0.4c-0.3-0.3-0.4-0.6-0.4-1.1c0-0.9,0.6-1.5,1.7-1.6l1.5-0.2c0-0.8-0.3-1.2-1-1.2c-0.6,0-1.1,0.2-1.6,0.6
		L87.6,30.8L87.6,30.8z M89.1,33.1c-0.4,0.1-0.7,0.2-0.9,0.3C88,33.6,88,33.8,88,34.1c0,0.2,0.1,0.4,0.2,0.6
		c0.2,0.2,0.4,0.2,0.7,0.2c0.4,0,0.7-0.1,1-0.4c0.2-0.3,0.4-0.6,0.4-1V33C90.2,33,89.1,33.1,89.1,33.1z M96.7,30.5l-2.3,5.8
		c-0.4,1.1-1,1.6-1.8,1.6c-0.2,0-0.4,0-0.6-0.1V37c0.2,0.1,0.3,0.1,0.5,0.1c0.4,0,0.7-0.2,0.9-0.7l0.4-0.9l-2-5h1l1.3,3.8l0.1,0.4h0
		c0-0.1,0.1-0.2,0.1-0.4l1.4-3.8L96.7,30.5L96.7,30.5z"/>
	<path class="st1" d="M13.7,26.7c-0.2,0.1-0.3,0.1-0.5,0.1c-0.4,0-0.8-0.2-1-0.6L12,26l-3.2-7.1c0-0.1-0.1-0.2-0.1-0.2
		c0-0.3,0.3-0.6,0.6-0.6c0.1,0,0.2,0,0.4,0.1l3.8,2.7c0.3,0.2,0.6,0.3,1,0.3c0.2,0,0.4,0,0.6-0.1l18-8c-3.2-3.8-8.6-6.3-14.6-6.3
		c-9.9,0-17.9,6.7-17.9,14.9c0,4.5,2.4,8.5,6.2,11.2c0.3,0.2,0.5,0.6,0.5,1c0,0.1,0,0.2-0.1,0.4c-0.3,1.1-0.8,2.9-0.8,3
		c0,0.1-0.1,0.3-0.1,0.4c0,0.3,0.3,0.6,0.6,0.6c0.1,0,0.2-0.1,0.3-0.1l3.9-2.2c0.3-0.2,0.6-0.3,0.9-0.3c0.2,0,0.4,0,0.5,0.1
		c1.8,0.5,3.8,0.8,5.8,0.8c9.9,0,17.9-6.7,17.9-14.9c0-2.5-0.7-4.8-2-6.9L13.8,26.6L13.7,26.7z"/>
</g>
</svg>
