<?xml version="1.0" encoding="utf-8"?>
<!-- Generator: Adobe Illustrator 24.0.0, SVG Export Plug-In . SVG Version: 6.00 Build 0)  -->
<svg version="1.1" id="图层_1" xmlns="http://www.w3.org/2000/svg" xmlns:xlink="http://www.w3.org/1999/xlink" x="0px" y="0px"
	 width="100px" height="45px" viewBox="0 0 100 45" style="enable-background:new 0 0 100 45;" xml:space="preserve">
<style type="text/css">
	.st0{fill-rule:evenodd;clip-rule:evenodd;fill:#009EE3;}
	.st1{fill-rule:evenodd;clip-rule:evenodd;fill:#113984;}
	.st2{fill-rule:evenodd;clip-rule:evenodd;fill:#172C70;}
</style>
<g>
	<path class="st0" d="M8.9,16.1h6.8c3.7,0,5,1.8,4.8,4.6c-0.4,4.5-3.1,7-6.7,7h-1.8c-0.5,0-0.8,0.3-1,1.2L10.3,34
		c-0.1,0.3-0.2,0.5-0.5,0.6H5.6c-0.4,0-0.5-0.3-0.4-1l2.6-16.5C7.8,16.4,8.2,16.1,8.9,16.1z"/>
	<path class="st1" d="M38.4,15.8c2.3,0,4.4,1.2,4.1,4.3c-0.4,3.7-2.3,5.7-5.4,5.7h-2.7c-0.4,0-0.6,0.3-0.7,1l-0.5,3.3
		c-0.1,0.5-0.3,0.8-0.7,0.8h-2.5c-0.4,0-0.5-0.3-0.5-0.8l2.1-13.4c0.1-0.7,0.4-0.9,0.8-0.9H38.4L38.4,15.8z M34.3,23h2.1
		c1.3,0,2.1-0.9,2.2-2.6c0.1-1-0.6-1.7-1.7-1.7l-1.9,0L34.3,23L34.3,23z M49.5,29.9c0.2-0.2,0.5-0.3,0.4-0.1l-0.1,0.6
		c0,0.3,0.1,0.5,0.4,0.5h2.3c0.4,0,0.6-0.2,0.7-0.7l1.4-8.7c0.1-0.4,0-0.7-0.4-0.7h-2.5c-0.2,0-0.3,0.1-0.4,0.5l-0.1,0.5
		c0,0.3-0.2,0.3-0.3,0c-0.4-1-1.5-1.4-3-1.4c-3.5,0.1-5.8,2.7-6.1,6.1c-0.2,2.6,1.7,4.7,4.1,4.7C47.8,31.3,48.6,30.8,49.5,29.9
		L49.5,29.9L49.5,29.9z M47.6,28.6c-1.5,0-2.5-1.2-2.3-2.7c0.2-1.5,1.6-2.7,3.1-2.7c1.5,0,2.5,1.2,2.3,2.7
		C50.5,27.4,49.1,28.6,47.6,28.6L47.6,28.6z M58.9,20.9h-2.3c-0.5,0-0.7,0.4-0.5,0.8l2.8,8.3l-2.8,3.9c-0.2,0.3-0.1,0.6,0.3,0.6H59
		c0.3,0,0.6-0.1,0.8-0.4l8.7-12.5c0.3-0.4,0.1-0.8-0.3-0.8h-2.4c-0.4,0-0.6,0.2-0.8,0.5l-3.6,5.3l-1.6-5.3
		C59.6,21.1,59.3,20.9,58.9,20.9L58.9,20.9z"/>
	<path class="st0" d="M77.5,15.8c2.3,0,4.4,1.2,4.1,4.3c-0.4,3.7-2.3,5.7-5.4,5.7h-2.7c-0.4,0-0.6,0.3-0.7,1l-0.5,3.3
		C72.2,30.7,72,31,71.6,31H69c-0.4,0-0.5-0.3-0.5-0.8l2.1-13.4c0.1-0.7,0.4-0.9,0.8-0.9L77.5,15.8L77.5,15.8z M73.4,23h2.1
		c1.3,0,2.1-0.9,2.2-2.6c0.1-1-0.6-1.7-1.7-1.7l-1.9,0L73.4,23L73.4,23z M88.6,29.9c0.2-0.2,0.5-0.3,0.4-0.1l-0.1,0.6
		c0,0.3,0.1,0.5,0.4,0.5h2.3c0.4,0,0.6-0.2,0.7-0.7l1.4-8.7c0.1-0.4,0-0.7-0.4-0.7h-2.5c-0.2,0-0.3,0.1-0.4,0.5l-0.1,0.5
		c0,0.3-0.2,0.3-0.3,0c-0.4-1-1.5-1.4-3-1.4c-3.5,0.1-5.8,2.7-6.1,6.1c-0.2,2.6,1.7,4.7,4.1,4.7C86.9,31.3,87.7,30.8,88.6,29.9
		L88.6,29.9L88.6,29.9z M86.7,28.6c-1.5,0-2.5-1.2-2.3-2.7s1.6-2.7,3.1-2.7s2.5,1.2,2.3,2.7S88.2,28.6,86.7,28.6L86.7,28.6z
		 M97.1,31h-2.6c-0.2,0-0.3-0.1-0.3-0.3c0,0,0,0,0-0.1l2.3-14.5c0-0.2,0.2-0.3,0.4-0.4h2.6c0.2,0,0.3,0.1,0.3,0.3c0,0,0,0,0,0.1
		l-2.3,14.5C97.4,30.9,97.3,31,97.1,31L97.1,31z"/>
	<path class="st1" d="M4.7,10.4h6.8c1.9,0,4.2,0.1,5.7,1.4c1,0.9,1.6,2.3,1.4,3.9c-0.4,5.2-3.5,8.1-7.7,8.1H7.6
		c-0.6,0-0.9,0.4-1.1,1.4l-0.9,6c-0.1,0.4-0.2,0.6-0.5,0.6H0.8c-0.5,0-0.6-0.4-0.5-1.1l3-19.1C3.4,10.8,3.8,10.4,4.7,10.4z"/>
	<path class="st2" d="M6.5,24.6l1.2-7.5c0.1-0.7,0.5-1,1.2-1h6.8c1.1,0,2,0.2,2.7,0.5c-0.7,4.6-3.7,7.2-7.6,7.2H7.5
		C7.1,23.8,6.7,24,6.5,24.6z"/>
</g>
</svg>
