<?xml version="1.0" encoding="utf-8"?>
<!-- Generator: Adobe Illustrator 24.0.0, SVG Export Plug-In . SVG Version: 6.00 Build 0)  -->
<svg version="1.1" id="图层_1" xmlns="http://www.w3.org/2000/svg" xmlns:xlink="http://www.w3.org/1999/xlink" x="0px" y="0px"
	 width="100px" height="45px" viewBox="0 0 100 45" style="enable-background:new 0 0 100 45;" xml:space="preserve">
<style type="text/css">
	.st0{fill:#36A1EB;}
	.st1{fill:#333333;}
	.st2{fill:#FFFFFF;}
	.st3{fill:#BBBBBB;}
	.st4{fill:#E0D7C2;}
</style>
<g>
	<path id="Shape" class="st0" d="M70.2,38.4H29.8c-1.6,0-2.8-1.2-2.8-2.8V9.4c0-1.6,1.2-2.8,2.8-2.8h40.3c1.6,0,2.8,1.2,2.8,2.8
		v26.2C73,37.2,71.7,38.4,70.2,38.4z"/>
	<rect id="Rectangle-path" x="27" y="13.2" class="st1" width="46" height="8.6"/>
	<rect id="Rectangle-path_1_" x="30.9" y="26" class="st2" width="23.1" height="7.3"/>
	<rect x="38.7" y="29" class="st3" width="5.8" height="1.4"/>
	<rect x="46" y="29" class="st3" width="5.8" height="1.4"/>
	<path class="st4" d="M68.6,33.3H62c-0.5,0-0.8-0.4-0.8-0.8v-5.6c0-0.5,0.4-0.8,0.8-0.8h6.6c0.5,0,0.8,0.4,0.8,0.8v5.6
		C69.4,32.9,69.1,33.3,68.6,33.3z"/>
</g>
</svg>
