<?xml version="1.0" encoding="utf-8"?>
<!-- Generator: Adobe Illustrator 24.0.0, SVG Export Plug-In . SVG Version: 6.00 Build 0)  -->
<svg version="1.1" id="图层_1" xmlns="http://www.w3.org/2000/svg" xmlns:xlink="http://www.w3.org/1999/xlink" x="0px" y="0px"
	 width="750px" height="471px" viewBox="0 0 750 471" style="enable-background:new 0 0 750 471;" xml:space="preserve">
<style type="text/css">
	.st0{fill:#00A0E9;}
	.st1{fill:#3E3A39;}
</style>
<g>
	<g>
		<path class="st0" d="M418.2,179.8c0,6.3-6.1,11.6-13.4,11.6c-7.3,0-13.4-5.3-13.4-11.6c0-6.3,6.1-11.6,13.4-11.6
			C412.1,168.3,418.2,173.5,418.2,179.8L418.2,179.8z M168.1,140.3H37.9c-17,0-30.4,14-30.4,30.4v129.6c0,17,14,30.4,30.4,30.4
			h130.2c17,0,30.4-14,30.4-30.4v-1.2c0,0-49.9-20.7-74.8-32.9c-17,20.7-38.9,33.5-61.5,33.5c-38.3,0-51.1-33.5-32.9-55.4
			c3.7-4.9,11-9.1,21.3-12.2c16.4-4.3,42,2.4,66.3,10.3c4.3-7.9,7.9-17,11-26.2H53.1V209h38.3v-13.4H44.6v-7.3h46.9v-19.5
			c0,0,0-3,3-3h18.9v22.5h46.2v7.3h-46.2V209h37.7c-3.7,14.6-9.1,28.6-15.8,40.2c11.6,4.3,21.9,7.9,29.2,10.3
			c27.4,9.1,34.1,9.7,34.1,9.7v-98.6C198.5,154.3,185.1,140.3,168.1,140.3L168.1,140.3z M168.1,140.3"/>
	</g>
	<path class="st0" d="M53.7,244.3c-4.9,0.6-14,2.4-18.9,6.7c-14.6,12.8-6.1,36.5,23.7,36.5c17,0,34.7-11,48.1-28.6
		C87.8,249.2,71.4,242.5,53.7,244.3L53.7,244.3z M53.7,244.3"/>
	<path class="st1" d="M280.1,175c-1.2,0-2.4,0.6-3.7,1.2c-1.2,0.6-1.8,1.8-2.4,2.4l-49.9,104.7h17.6l9.1-17.6H302l8.5,17.6h26.8
		L287.4,175H280.1z M254.5,257.1l22.5-46.9l21.9,46.9H254.5z M348.8,176.8c-0.6,0.6-1.2,1.8-1.2,3v104.1H372V175h-19.5
		C350.7,175,349.4,175.6,348.8,176.8L348.8,176.8z M393.9,204.8c-0.6,0.6-1.2,1.8-1.2,3v75.5H417v-79.7h-19.5
		C396.3,203.6,395.1,204.2,393.9,204.8L393.9,204.8z M508.9,213.3c-3-3.7-6.7-6.1-11-7.9c-4.3-1.8-9.1-3-14-3
		c-4.9,0-9.1,0.6-12.8,2.4c-3.7,1.2-6.7,3.7-9.7,5.5v-6.1h-19.5c-1.2,0-2.4,0.6-3,1.2c-1.2,1.2-1.2,1.8-1.2,3v106.5H462v-32.3
		c2.4,0.6,4.3,1.2,6.7,1.8c2.4,0,4.9,0.6,8.5,0.6c6.1,0,12.2-1.2,17-3.7c4.9-2.4,9.1-5.5,12.8-9.7c3.7-4.3,6.1-9.1,8.5-14.6
		c1.8-5.5,3-11.6,3-18.3c0-4.9-0.6-9.7-2.4-14.6C513.7,220.6,511.3,216.3,508.9,213.3L508.9,213.3z M490.6,258.9
		c-0.6,3.7-1.8,6.1-3,9.1c-1.2,2.4-3,4.3-4.9,5.5c-1.8,1.2-3.7,1.8-6.1,1.8c-2.4,0-4.3-0.6-6.1-1.2c-1.8-0.6-3.7-1.8-4.9-3
		c-1.2-1.2-2.4-3-3-4.3c-0.6-1.8-1.2-3.7-1.2-5.5v-35.3c1.2-1.2,1.8-2.4,3-3.7c1.2-1.2,2.4-2.4,3.7-3c1.2-0.6,2.4-1.8,4.3-1.8
		c1.2-0.6,3-0.6,4.3-0.6c2.4,0,4.3,0.6,6.1,1.8c1.8,1.2,3,3,4.9,6.1c1.2,2.4,2.4,6.1,3,9.7c0.6,3.7,1.2,8.5,1.2,13.4
		C491.8,251.6,491.8,255.3,490.6,258.9L490.6,258.9z M580.7,204.8c-11.6-3-26.2-3.7-46.2,1.2c0.6,1.8,1.8,5.5,2.4,7.9
		c31.6-5.5,37.7-1.2,37.7,12.8v4.3c-6.1-0.6-12.8-1.2-18.3-1.2c-21.9-0.6-29.8,17-29.8,28c0,18.9,18.3,37.1,48.1,23.7v3h24.9v-58.4
		C599.5,213.9,589.8,207.2,580.7,204.8L580.7,204.8z M574.6,269.3c-3,3-7.3,4.9-11.6,4.9c-9.1,0-17-7.3-17-17c0-9.1,7.3-16.4,17-17
		c6.1-0.6,9.1,0.6,11.6,1.8V269.3z M679.9,202.9c-0.6,0.6-1.8,1.2-1.8,2.4l-20.7,46.2l-25.6-49.3h-25.6l38.9,76.1l-3,6.1
		c-0.6,1.2-1.2,2.4-1.8,4.3c-0.6,1.2-1.8,3.7-3,4.9c-4.9,5.5-15.8,5.5-18.9,5.5v13.4c4.3,0,28,3.7,37.7-20.7l40.2-88.8h-14
		C681.7,202.3,680.5,202.3,679.9,202.9L679.9,202.9z M715.2,170.1h4.3v14h2.4v-14h4.3v-2.4h-11V170.1z M740.1,167.7l-4.3,10.3
		l-4.9-10.3h-2.4v16.4h2.4v-11l4.3,7.9h1.2l3.7-7.9v11h2.4v-16.4H740.1z M740.1,167.7"/>
</g>
</svg>
