<?xml version="1.0" encoding="UTF-8"?>
<svg width="30px" height="22px" viewBox="0 0 30 22" version="1.1" xmlns="http://www.w3.org/2000/svg" xmlns:xlink="http://www.w3.org/1999/xlink">
    <!-- Generator: Sketch 60.1 (88133) - https://sketch.com -->
    <title>amex</title>
    <desc>Created with Sketch.</desc>
    <g id="Page-1" stroke="none" stroke-width="1" fill="none" fill-rule="evenodd">
        <g id="Step-3" transform="translate(-514.000000, -695.000000)" fill-rule="nonzero">
            <g id="amex" transform="translate(514.000000, 695.000000)">
                <path d="M28.0434783,0 L1.95652174,0 C0.875869565,0 0,0.869 0,1.94117647 L0,20.0588235 C0,21.131 0.875869565,22 1.95652174,22 L28.0434783,22 C29.1241304,22 30,21.131 30,20.0588235 L30,1.94117647 C30,0.869 29.1241304,0 28.0434783,0 Z" id="Shape" fill="#2A9EE7"></path>
                <path d="M6.21717391,11.2775882 L7.73673913,11.2775882 L6.97695652,9.42894118 L6.21717391,11.2775882 Z M27.3913043,7.76470588 L23.4984783,7.76470588 L22.548913,8.78123529 L21.693913,7.76470588 L13.4334783,7.76470588 L12.6736957,9.42829412 L11.913913,7.76470588 L8.59043478,7.76470588 L8.59043478,8.50429412 L8.21086957,7.76470588 L5.36217391,7.76470588 L2.60869565,14.2352941 L5.93217391,14.2352941 L6.31173913,13.2187647 L7.26130435,13.2187647 L7.64086957,14.2352941 L11.343913,14.2352941 L11.343913,13.4957059 L11.628913,14.2352941 L13.5280435,14.2352941 L13.8130435,13.4031765 L13.8130435,14.2352941 L21.4095652,14.2352941 L22.3591304,13.2187647 L23.2134783,14.2352941 L27.1063043,14.2352941 L24.6378261,11 L27.3913043,7.76470588 Z M15.9019565,13.3106471 L14.8571739,13.3106471 L14.8571739,9.70588235 L13.2430435,13.3106471 L12.2934783,13.3106471 L10.6793478,9.70588235 L10.6793478,13.3106471 L8.49521739,13.3106471 L8.11565217,12.2941176 L5.83695652,12.2941176 L5.4573913,13.3106471 L4.22282609,13.3106471 L6.21652174,8.68870588 L7.83065217,8.68870588 L9.63456522,13.0330588 L9.63456522,8.68870588 L11.4384783,8.68870588 L12.8628261,11.8314706 L14.1919565,8.68870588 L15.9958696,8.68870588 L15.9958696,13.3106471 L15.9019565,13.3106471 L15.9019565,13.3106471 Z M25.3023913,13.3106471 L23.8780435,13.3106471 L22.6434783,11.7389412 L21.2191304,13.3106471 L16.946087,13.3106471 L16.946087,8.68870588 L21.3136957,8.68870588 L22.6428261,10.1678824 L24.0671739,8.68870588 L25.3963043,8.68870588 L23.3080435,11 L25.3023913,13.3106471 Z M17.9908696,9.61335294 L17.9908696,10.4454706 L20.3647826,10.4454706 L20.3647826,11.3701176 L17.9908696,11.3701176 L17.9908696,12.2941176 L20.6497826,12.2941176 L21.8843478,10.9074706 L20.745,9.61335294 L17.9908696,9.61335294 Z" id="Shape" fill="#FFFFFF"></path>
            </g>
        </g>
    </g>
</svg>