<?xml version="1.0" encoding="UTF-8"?>
<svg width="30px" height="22px" viewBox="0 0 30 22" version="1.1" xmlns="http://www.w3.org/2000/svg" xmlns:xlink="http://www.w3.org/1999/xlink">
    <!-- Generator: Sketch 60.1 (88133) - https://sketch.com -->
    <title>mastercard</title>
    <desc>Created with Sketch.</desc>
    <g id="Page-1" stroke="none" stroke-width="1" fill="none" fill-rule="evenodd">
        <g id="Step-3" transform="translate(-572.000000, -695.000000)" fill-rule="nonzero">
            <g id="mastercard" transform="translate(572.000000, 695.000000)">
                <path d="M28.0434783,0 L1.95652174,0 C0.875869565,0 0,0.869 0,1.94117647 L0,20.0588235 C0,21.131 0.875869565,22 1.95652174,22 L28.0434783,22 C29.1241304,22 30,21.131 30,20.0588235 L30,1.94117647 C30,0.869 29.1241304,0 28.0434783,0 Z" id="Shape" fill="#104E84"></path>
                <ellipse id="Oval" fill="#F01524" cx="11.7391304" cy="11" rx="5.2173913" ry="5.17647059"></ellipse>
                <path d="M15,15.0376471 C15.0606522,14.9891176 15.1154348,14.9334706 15.1741304,14.8823529 L14.8252174,14.8823529 C14.8845652,14.9334706 14.9393478,14.9891176 15,15.0376471 Z" id="Shape" fill="#376BD1"></path>
                <path d="M18.2608696,5.82352941 C16.6141304,5.82352941 15.1480435,6.58252941 14.1913043,7.76470588 L15.8086957,7.76470588 C15.9723913,7.96723529 16.1152174,8.18594118 16.2476087,8.41176471 L13.7517391,8.41176471 L13.7465217,8.41176471 C13.6252174,8.61947059 13.5169565,8.83429412 13.4256522,9.05882353 L13.4315217,9.05882353 L16.5678261,9.05882353 C16.653913,9.26847059 16.7282609,9.48329412 16.7863043,9.70588235 L13.2143478,9.70588235 C13.1595652,9.91682353 13.1158696,10.1322941 13.0884783,10.3529412 L16.9134783,10.3529412 C16.9402174,10.5651765 16.9565217,10.7806471 16.9565217,11 L13.0434783,11 C13.0434783,11.2193529 13.0617391,11.4348235 13.0884783,11.6470588 L16.9134783,11.6470588 C16.8854348,11.8677059 16.841087,12.0831765 16.7863043,12.2941176 L13.2143478,12.2941176 C13.2717391,12.5154118 13.3408696,12.7321765 13.4263043,12.9411765 L13.4321739,12.9411765 L16.5684783,12.9411765 C16.4765217,13.1650588 16.3695652,13.3811765 16.2482609,13.5882353 L13.7523913,13.5882353 L13.7471739,13.5882353 C13.8795652,13.8153529 14.0269565,14.0321176 14.1913043,14.2352941 L15.8086957,14.2352941 C15.6182609,14.4701765 15.4023913,14.6837059 15.1741304,14.8823529 L14.8252174,14.8823529 L14.8173913,14.8823529 C15.7363043,15.6853529 16.9395652,16.1764706 18.2602174,16.1764706 C21.1415217,16.1764706 23.4776087,13.8587059 23.4776087,11 C23.4776087,8.14129412 21.1421739,5.82352941 18.2608696,5.82352941 Z" id="Shape" fill="#FEB415"></path>
            </g>
        </g>
    </g>
</svg>