<?xml version="1.0" encoding="utf-8"?>
<!-- Generator: Adobe Illustrator 24.0.0, SVG Export Plug-In . SVG Version: 6.00 Build 0)  -->
<svg version="1.1" id="图层_1" xmlns="http://www.w3.org/2000/svg" xmlns:xlink="http://www.w3.org/1999/xlink" x="0px" y="0px"
	 width="750px" height="471px" viewBox="0 0 750 471" style="enable-background:new 0 0 750 471;" xml:space="preserve">
<style type="text/css">
	.st0{fill:#FFFFFF;}
	.st1{fill:#003087;}
	.st2{fill:#009CDE;}
</style>
<desc>Created with Sketch.</desc>
<g id="Page-1">
	<g id="paypal">
		<path id="Shape" class="st0" d="M697.1,0H52.9C23.7,0,0,23.2,0,51.7v367.6C0,447.8,23.7,471,52.9,471h644.2
			c29.2,0,52.9-23.2,52.9-51.7V51.7C750,23.2,726.3,0,697.1,0z"/>
		<g id="Group" transform="translate(54.000000, 150.000000)">
			<path id="Shape_1_" class="st1" d="M109.3,8.5c-8-5.5-18.5-8.3-31.4-8.3h-50c-4,0-6.1,2-6.6,5.9L1,133.6
				c-0.2,1.3,0.1,2.4,0.9,3.4c0.8,1,1.9,1.6,3.1,1.6h23.8c4.2,0,6.5-2,6.9-5.9l5.6-34.4c0.2-1.7,0.9-3,2.2-4.1c1.2-1,2.8-1.7,4.7-2
				c1.9-0.3,3.6-0.5,5.3-0.5c1.7,0,3.6,0.1,5.9,0.3c2.3,0.2,3.7,0.3,4.4,0.3c17.9,0,32-5,42.2-15.2c10.2-10.1,15.3-24.1,15.3-42
				C121.3,22.9,117.3,14,109.3,8.5z M83.5,46.7c-1,7.3-3.8,12.1-8.1,14.4c-4.4,2.3-10.6,3.4-18.8,3.4l-10.3,0.3l5.3-33.4
				c0.4-2.3,1.8-3.4,4.1-3.4h5.9c8.3,0,14.4,1.2,18.1,3.6C83.5,34,84.7,39,83.5,46.7z"/>
			<path id="Shape_2_" class="st2" d="M637,0.2h-23.1c-2.3,0-3.7,1.1-4.1,3.4l-20.3,130l-0.3,0.6c0,1,0.4,2,1.3,3
				c0.8,0.9,1.9,1.4,3.1,1.4h20.6c4,0,6.1-2,6.6-5.9L641.1,4.9V4.6C641.1,1.6,639.7,0.2,637,0.2z"/>
			<path id="Shape_3_" class="st1" d="M357.6,50.5c0-1-0.4-2-1.2-3c-0.8-0.9-1.8-1.4-2.8-1.4h-24.1c-2.3,0-4.2,1-5.6,3.1L290.7,98
				L277,51.1c-1-3.3-3.3-5-6.9-5h-23.4c-1,0-2,0.5-2.8,1.4c-0.8,0.9-1.3,1.9-1.3,3c0,0.4,2,6.6,6.1,18.4
				c4.1,11.9,8.4,24.7,13.1,38.4c4.7,13.8,7.1,21,7.3,21.9c-17.1,23.3-25.6,35.8-25.6,37.5c0,2.7,1.4,4.1,4.1,4.1h24.1
				c2.3,0,4.2-1,5.6-3.1l79.7-115C357.4,52.3,357.6,51.5,357.6,50.5z"/>
			<path id="Shape_4_" class="st2" d="M581.7,46.1h-23.8c-2.9,0-4.7,3.4-5.3,10.3c-5.4-8.3-15.3-12.5-29.7-12.5
				c-15,0-27.8,5.6-38.3,16.9c-10.5,11.3-15.8,24.5-15.8,39.7c0,12.3,3.6,22.1,10.8,29.4c7.2,7.3,16.8,10.9,28.9,10.9
				c6,0,12.2-1.3,18.4-3.8c6.3-2.5,11.1-5.8,14.7-10c0,0.2-0.2,1.1-0.6,2.8c-0.4,1.7-0.6,2.9-0.6,3.8c0,3.3,1.4,5,4.1,5h21.6
				c4,0,6.2-2,6.9-5.9l12.8-81.6c0.2-1.3-0.1-2.4-0.9-3.4C584,46.6,583,46.1,581.7,46.1z M540.9,107.7c-5.3,5.2-11.7,7.8-19.2,7.8
				c-6,0-10.9-1.7-14.7-5c-3.8-3.3-5.6-7.9-5.6-13.8c0-7.7,2.6-14.2,7.8-19.5c5.2-5.3,11.7-8,19.4-8c5.8,0,10.7,1.7,14.5,5.2
				c3.9,3.4,5.8,8.2,5.8,14.2C548.9,96.1,546.2,102.5,540.9,107.7z"/>
			<path id="Shape_5_" class="st1" d="M226.6,46.1h-23.8c-2.9,0-4.7,3.4-5.3,10.3c-5.6-8.3-15.5-12.5-29.7-12.5
				c-15,0-27.8,5.6-38.3,16.9c-10.5,11.3-15.8,24.5-15.8,39.7c0,12.3,3.6,22.1,10.8,29.4c7.2,7.3,16.8,10.9,28.9,10.9
				c5.8,0,11.9-1.3,18.1-3.8c6.3-2.5,11.3-5.8,15-10c-0.8,2.5-1.3,4.7-1.3,6.6c0,3.3,1.4,5,4.1,5H211c4,0,6.3-2,6.9-5.9l12.8-81.6
				c0.2-1.3-0.1-2.4-0.9-3.4C228.9,46.6,227.9,46.1,226.6,46.1z M185.9,107.9c-5.3,5.1-11.8,7.7-19.5,7.7c-6,0-10.9-1.7-14.5-5
				c-3.6-3.3-5.5-7.9-5.5-13.8c0-7.7,2.6-14.2,7.8-19.5c5.2-5.3,11.7-8,19.4-8c5.8,0,10.7,1.7,14.5,5.2c3.9,3.4,5.8,8.2,5.8,14.2
				C193.8,96.3,191.2,102.8,185.9,107.9z"/>
			<path id="Shape_6_" class="st2" d="M464.3,8.5c-8-5.5-18.5-8.3-31.4-8.3h-49.7c-4.2,0-6.5,2-6.9,5.9L356,133.6
				c-0.2,1.3,0.1,2.4,0.9,3.4c0.8,1,1.9,1.6,3.1,1.6h25.6c2.5,0,4.2-1.4,5-4.1l5.6-36.3c0.2-1.7,0.9-3,2.2-4.1c1.3-1,2.8-1.7,4.7-2
				c1.9-0.3,3.6-0.5,5.3-0.5c1.7,0,3.6,0.1,5.9,0.3c2.3,0.2,3.8,0.3,4.4,0.3c17.9,0,32-5,42.2-15.2c10.2-10.1,15.3-24.1,15.3-42
				C476.4,22.9,472.4,14,464.3,8.5z M432.3,59.9c-4.6,3.1-11.5,4.7-20.6,4.7l-10,0.3l5.3-33.4c0.4-2.3,1.8-3.4,4.1-3.4h5.6
				c4.6,0,8.2,0.2,10.9,0.6c2.7,0.4,5.3,1.7,7.8,3.9c2.5,2.2,3.8,5.4,3.8,9.5C439.2,50.8,436.9,56.7,432.3,59.9z"/>
		</g>
	</g>
</g>
</svg>
