<?xml version="1.0" encoding="UTF-8"?>
<svg width="30px" height="22px" viewBox="0 0 30 22" version="1.1" xmlns="http://www.w3.org/2000/svg" xmlns:xlink="http://www.w3.org/1999/xlink">
    <!-- Generator: Sketch 60.1 (88133) - https://sketch.com -->
    <title>visa</title>
    <desc>Created with Sketch.</desc>
    <g id="Page-1" stroke="none" stroke-width="1" fill="none" fill-rule="evenodd">
        <g id="Step-3" transform="translate(-630.000000, -695.000000)" fill-rule="nonzero">
            <g id="visa" transform="translate(630.000000, 695.000000)">
                <rect id="Rectangle-path" fill="#EDEEF4" x="0" y="4.52941176" width="30" height="12.2941176"></rect>
                <path d="M1.95652174,22 L28.0434783,22 C29.1241304,22 30,21.131 30,20.0588235 L30,16.8235294 L0,16.8235294 L0,20.0588235 C0,21.131 0.875869565,22 1.95652174,22 Z" id="Shape" fill="#F8BA43"></path>
                <path d="M28.0434783,0 L1.95652174,0 C0.875869565,0 0,0.869 0,1.94117647 L0,5.17647059 L30,5.17647059 L30,1.94117647 C30,0.869 29.1241304,0 28.0434783,0 Z" id="Shape" fill="#3A3896"></path>
                <polygon id="Shape" fill="#3A3896" points="11.8943478 14.1058824 13.5958696 14.1058824 14.6608696 7.90964706 12.9586957 7.90964706"></polygon>
                <path d="M18.0932609,10.3975882 C17.4984783,10.1109412 17.133913,9.91941176 17.1378261,9.62952941 C17.1378261,9.372 17.4463043,9.09635294 18.1128261,9.09635294 C18.6580435,9.08794118 19.0976087,9.19794118 19.5397826,9.405 L19.7706522,8.06170588 C19.4334783,7.93617647 18.9052174,7.80158824 18.2452174,7.80158824 C16.5632609,7.80158824 15.3782609,8.64211765 15.3684783,9.84629412 C15.3586957,10.7366471 16.2143478,11.2335882 16.86,11.5299412 C17.5226087,11.8334118 17.7456522,12.0275294 17.7423913,12.2986471 C17.7384783,12.7140588 17.2134783,12.9036471 16.7236957,12.9036471 C15.9684783,12.9036471 15.5876087,12.7878235 14.9021739,12.4798235 L14.6634783,13.8671176 C15.0613043,14.0398824 15.7963043,14.19 16.56,14.1977647 C18.3495652,14.1977647 19.511087,13.3669412 19.5241304,12.0805882 C19.5286957,11.3759412 19.0754348,10.8395294 18.0932609,10.3975882 Z" id="Shape" fill="#3A3896"></path>
                <path d="M24.135,7.91547059 L22.8195652,7.91547059 C22.4119565,7.91547059 22.1073913,8.02611765 21.9280435,8.42923529 L19.4002174,14.1078235 L21.1878261,14.1078235 C21.1878261,14.1078235 21.48,13.3442941 21.5465217,13.1767059 C21.7421739,13.1767059 23.4782609,13.1792941 23.7267391,13.1792941 C23.7776087,13.3960588 23.9341304,14.1078235 23.9341304,14.1078235 L25.5136957,14.1078235 L24.135,7.91547059 Z M22.0363043,11.9097647 C22.1067391,11.7311765 22.8013043,9.96147059 22.9402174,9.58617647 C23.1704348,10.6544706 22.946087,9.61788235 23.4495652,11.9097647 L22.0363043,11.9097647 Z" id="Shape" fill="#3A3896"></path>
                <path d="M10.4667391,7.91417647 L8.79978261,12.1394706 L8.6223913,11.2808235 L8.02565217,8.43311765 C7.9226087,8.041 7.62391304,7.92388235 7.25413043,7.91029412 L4.50847826,7.91029412 L4.48695652,8.03905882 C5.15478261,8.19952941 5.75152174,8.43117647 6.27521739,8.71847059 L7.78891304,14.1000588 L9.59021739,14.0981176 L12.27,7.91352941 L10.4667391,7.91352941 L10.4667391,7.91417647 Z" id="Shape" fill="#3A3896"></path>
            </g>
        </g>
    </g>
</svg>