<?xml version="1.0" encoding="utf-8"?>
<!-- Generator: Adobe Illustrator 24.0.0, SVG Export Plug-In . SVG Version: 6.00 Build 0)  -->
<svg version="1.1" id="图层_1" xmlns="http://www.w3.org/2000/svg" xmlns:xlink="http://www.w3.org/1999/xlink" x="0px" y="0px"
	 width="750px" height="471px" viewBox="0 0 750 471" style="enable-background:new 0 0 750 471;" xml:space="preserve">
<style type="text/css">
	.st0{fill:#09BB07;}
	.st1{fill:#494949;}
</style>
<g id="logo">
	<path id="XMLID_364_" class="st0" d="M61.9,253.9c-0.7,0.5-1.7,0.7-2.6,0.7c-2.2,0-4-1.2-5-2.8l-0.5-0.7l-15.5-33.9
		c0.2-0.5,0.2-1,0.2-1.2c0-1.7,1.2-2.8,2.8-2.8c0.7,0,1.2,0.2,1.7,0.5l18.1,12.8c1.5,1,2.8,1.5,4.5,1.5c1,0,2-0.2,2.8-0.5l85.8-38.3
		c-15.3-18-40.6-29.9-69.4-29.9C38.1,159.3,0,191.1,0,230.1c0,21.3,11.5,40.4,29.4,53.6c1.5,1,2.4,2.6,2.4,4.5c0,0.7-0.2,1.2-0.2,2
		c-1.5,5.3-3.8,13.8-3.8,14.3c-0.2,0.7-0.5,1.5-0.5,2.2c0,1.7,1.2,2.8,2.8,2.8c0.7,0,1.2-0.2,1.7-0.5l18.4-11
		c1.5-0.7,2.8-1.2,4.5-1.2c1,0,1.7,0.2,2.4,0.5c8.6,2.4,18,3.8,27.8,3.8c46.9-0.2,84.9-32.1,84.9-71c0-12-3.5-23-9.5-32.8
		l-97.8,56.4L61.9,253.9z"/>
	<g id="XMLID_33_">
		<path id="XMLID_363_" class="st1" d="M274.4,237.4c-0.7,2-1.1,4-1.8,6c-2.3,7.5-4,14.1-5.5,20.8c-1.4-7.9-4-17.4-6.4-26.9
			l-12.6-47h-6.3L228,237.7c-3.1,10.2-6,19.5-7.2,26.7c-1.4-6.4-3.3-14.4-5.5-22.5L202,190.2h-7.1l22.3,84.6h6.4l14.4-48.4
			c3.5-11.3,5.8-19.2,7.1-26.1c1.1,7.5,3.1,15.5,6.2,26.1l12.6,48.4h6.4l25.4-84.6h-7.1L274.4,237.4z"/>
		<g id="XMLID_80_">
			<path id="XMLID_81_" class="st1" d="M339.9,266.6c-3.5,1.6-7.9,3.1-15.7,3.1c-13.9,0-22.1-9.3-22.1-25.4h43.8v-0.5
				c0.2-1.1,0.2-2,0.2-3.7c0-2.3-0.2-10.2-4.4-17c-4.2-6.9-10.6-10.4-19.2-10.4c-16.4,0-27.1,13.2-27.1,32.7
				c0,18.1,11.3,30.3,28.3,30.3c10.9,0,16.7-2.6,19-4l0.5-0.2L339.9,266.6z M321.8,218.6c4.9,0,8.8,1.6,11.8,4.4
				c4.9,4.9,5.3,11.9,5.3,15.3h-36.6C303.8,229.3,309.5,218.6,321.8,218.6z"/>
		</g>
		<g id="XMLID_78_">
			<path id="XMLID_79_" class="st1" d="M397.6,269.7c-21.8,0-34.9-13.7-34.9-36.6c0-23.9,13.5-38.2,35.7-38.2
				c6.2,0,12.1,1.1,16.6,3.3l3.1-5.5l-0.2-0.2c-1.6-0.9-7.7-3.7-19.7-3.7c-25.7,0-42.9,17.6-42.9,44.2c0,31.8,21.6,43.1,40,43.1
				c10.6,0,18.5-2.3,22.7-4.2l0.2-0.2l-3.1-5.3C410.8,268.4,404.3,269.7,397.6,269.7z"/>
		</g>
		<g id="XMLID_76_">
			<path id="XMLID_77_" class="st1" d="M456.6,212.8c-4.4,0-8.6,1.4-12.3,3.5c-2.8,1.8-5.8,4.4-7.5,7.5v-35.2h-7.1v85.9h7.1v-36.9
				c0-2.4,0.2-4,0.7-5.8c2.6-7.7,10-13,17.4-13c13.7,0,15.9,12.6,15.9,19.9v35.7h7.1v-36.2C477.8,214,460.2,212.8,456.6,212.8z"/>
		</g>
		<g id="XMLID_74_">
			<path id="XMLID_75_" class="st1" d="M567.4,269.3c-1.4,0.2-2.8,0.5-5.3,0.5c-5.5,0-8.1-3.7-8.1-11.8v-38h17v-5.8h-17V201h-7.1
				v13.2h-9.7v5.8h10v37.1c0,6.9,1.4,11.8,3.7,14.6c2.3,2.8,6,4.4,10.6,4.4c3.3,0,6.2-0.5,8.4-1.6l0.2-0.2L567.4,269.3z"/>
		</g>
		<path id="XMLID_71_" class="st1" d="M617.7,189.5c-6,0-12.1,0.5-18.1,1.6h-0.5v83.5h7.1v-35.6c2.6,0.7,5.8,0.9,9.7,0.9
			c10.6,0,19.7-3.3,25-9.5c4-4.4,6-10,6-17c0-6.9-2.3-12.6-6.7-16.7C635.3,191.9,627.6,189.5,617.7,189.5z M639.7,214
			c0,12.6-8.6,19.9-23.4,19.9c-3.1,0-7.1-0.2-10.2-1.1v-36.4c1.6-0.2,5.3-0.9,11.3-0.9C631.6,195.4,639.7,202.1,639.7,214z"/>
		<g id="XMLID_69_">
			<path id="XMLID_70_" class="st1" d="M743,214l-14.6,38.9c-1.4,3.5-2.4,6.9-3.5,10c-0.2,0.7-0.5,1.4-0.7,2c-1.1-4-2.6-8.1-4-11.8
				l-15.7-38.9l-0.2-0.2h-7.5l22.3,55.9c0.7,1.6,0.7,2.3,0.7,2.4c0,0.5-0.2,1.4-0.7,2.4c-3.1,7.1-7.1,11.9-9.7,14.8
				c-3.7,3.7-8.1,5.8-10.2,6.4l-0.5,0.2l3.1,5.5c1.6-0.7,5.5-2.4,10-6.2c7.7-6.9,12.6-17.2,20.1-36.4l18.1-45.1
				C750,214,743,214,743,214z"/>
		</g>
		<g id="XMLID_65_">
			<path id="XMLID_66_" class="st1" d="M532,273.9c-0.7-4.6-0.9-9.5-0.9-14.1v-23.2c0-15.7-7.2-23.9-21-23.9c-6.2,0-12.8,2-17.6,5.1
				l0,0l2.8,4.9c4-2.6,9-4.2,14.4-4.2h0.2c4.4,0,7.9,1.1,10.2,3.5c2.8,2.8,4.2,7.2,4.2,13.5v1.1c-14.6-0.2-25,2.8-31,8.8
				c-3.5,3.5-5.5,8.1-5.5,13.5c0,8.1,5.5,16.7,17.9,16.7c9,0,15.5-4.6,19-9.3l0.9,7.9h6.4v-0.3H532z M524.3,254.9
				c0,0.9,0,2.3-0.7,3.5c-2,5.5-7.2,11.5-17,11.5c-5.3,0-11.5-3.1-11.5-11.9c0-3.7,1.4-6.9,3.7-9.3c4.2-4.2,11.9-6.2,23.2-6.2
				c0.7,0,1.6,0,2.3,0L524.3,254.9L524.3,254.9z"/>
		</g>
		<g id="XMLID_34_">
			<path id="XMLID_35_" class="st1" d="M691.8,273.9c-0.7-4.6-0.9-9.5-0.9-14.1v-23.2c0-15.7-7.2-23.9-21-23.9c-6,0-12.1,1.8-17,4.6
				l2.8,4.9c3.7-2.4,8.6-3.7,13.7-3.7h0.2c4.4,0,7.9,1.1,10.2,3.5c2.8,2.8,4.2,7.2,4.2,13.5v1.1c-14.6-0.2-25,2.8-31,8.8
				c-3.5,3.5-5.5,8.1-5.5,13.5c0,8.1,5.5,16.7,17.9,16.7c9,0,15.5-4.6,19-9.3l0.9,7.9h6.4v-0.3H691.8z M684,254.9
				c0,0.9,0,2.3-0.7,3.5c-2,5.5-7.2,11.5-17,11.5c-5.3,0-11.5-3.1-11.5-11.9c0-3.7,1.4-6.9,3.7-9.3c4.2-4.2,11.9-6.2,23.2-6.2
				c0.7,0,1.6,0,2.3,0"/>
		</g>
	</g>
</g>
</svg>
