<?xml version="1.0" encoding="utf-8"?>
<!-- Generator: Adobe Illustrator 23.0.0, SVG Export Plug-In . SVG Version: 6.00 Build 0)  -->
<svg version="1.1" id="Layer_1" xmlns="http://www.w3.org/2000/svg" xmlns:xlink="http://www.w3.org/1999/xlink" x="0px" y="0px"
	 viewBox="0 0 154.1 44.9" style="enable-background:new 0 0 154.1 44.9;" xml:space="preserve">
<title>cbs</title>
<path d="M1.6,22.9C1.6,11.5,10.4,3.8,22,3.8c9.7,0,14.6,5.7,16.8,10.8L29.2,19c-1-3.1-3.9-5.2-7.2-5.4c-5.4,0-9,4.1-9,9.3
	s3.6,9.3,9,9.3c3.3-0.1,6.1-2.3,7.2-5.4l9.7,4.5c-2.2,5-7.1,10.8-16.8,10.8C10.4,42.1,1.6,34.3,1.6,22.9"/>
<path d="M41.2,41.5V4.4h22.5c7.7,0,11,5.1,11,9.4c0,4.6-2.7,7.7-6.3,8.5c4,0.6,7.1,4.3,7.1,9.1c0,5.2-3.5,10.1-10.9,10.1 M63.3,15.8
	c0-1.2-1-2.1-2.2-2.1c0,0,0,0-0.1,0h-8.7V18h8.7C62.3,18,63.3,17,63.3,15.8C63.3,15.8,63.3,15.8,63.3,15.8z M64.1,29.8
	c0-1.3-1.1-2.4-2.4-2.4c-0.1,0-0.1,0-0.2,0h-9v4.7h9c1.3,0.2,2.4-0.7,2.6-2C64.1,30,64.1,29.9,64.1,29.8L64.1,29.8z"/>
<path d="M76,36.2l5.8-8.3c3.2,3.1,7.5,4.8,11.9,4.8c2.1,0,4.1-0.6,4.1-2c0-3.6-20.7,0.1-20.7-14.6c0-6.3,5.2-12.3,15.4-12.3
	c5.7-0.2,11.3,1.7,15.7,5.2l-6,8c-3.2-2.3-7-3.6-10.9-3.7c-2.2,0-2.8,0.7-2.8,1.7c0,3.5,20.6,0.5,20.6,14.3c0,8.2-6.1,12.9-16,12.9
	C85.3,42.1,80,39.8,76,36.2"/>
<path d="M152.5,22.4c0.7,11.6-8.1,21.5-19.7,22.3c-11.6,0.7-21.5-8.1-22.3-19.7c-0.1-0.9-0.1-1.7,0-2.6
	c-0.7-11.6,8.1-21.5,19.7-22.3c11.6-0.7,21.5,8.1,22.3,19.7C152.6,20.7,152.6,21.5,152.5,22.4 M112.1,22.4
	c5.1,10.8,18,15.3,28.8,10.2c4.5-2.1,8.1-5.7,10.2-10.2c-5.2-10.8-18.2-15.3-29-10C117.8,14.5,114.2,18,112.1,22.4z M142.8,22.4
	c0,6.2-5,11.3-11.2,11.3c-6.2,0-11.3-5-11.3-11.2s5-11.3,11.2-11.3c0,0,0,0,0,0C137.8,11.1,142.8,16.1,142.8,22.4
	C142.8,22.4,142.8,22.4,142.8,22.4z"/>
</svg>
