<svg id="Layer_1" data-name="Layer 1" xmlns="http://www.w3.org/2000/svg" viewBox="0 0 81.4 28.06"><title>dell-word</title><g id="layer1"><g id="g3464"><path id="path3466" d="M14.66,14a4.65,4.65,0,0,0-5-4.94H7.8v9.88H9.56c2.75,0,5.1-1.49,5.1-4.94m32.2,3.55L33.52,28.06l-12.19-9.6a11.78,11.78,0,0,1-10.9,7.16H0V2.41H10.43a11.69,11.69,0,0,1,10.9,7.18L33.52,0,38,3.55,26.86,12.32,29,14,40.18,5.22,44.7,8.76l-11.17,8.8,2.14,1.68,11.19-8.83v-8H55V18.84h8.09v6.81H46.86Zm26.46,1.29H81.4v6.81H65.18V2.41h8.11Z"/></g></g></svg>