<?xml version="1.0" encoding="utf-8"?>
<!-- Generator: Adobe Illustrator 21.0.2, SVG Export Plug-In . SVG Version: 6.00 Build 0)  -->
<svg version="1.1" id="Layer_1" xmlns="http://www.w3.org/2000/svg" xmlns:xlink="http://www.w3.org/1999/xlink" x="0px" y="0px"
	 viewBox="0 0 135.9 39.6" style="enable-background:new 0 0 135.9 39.6;" xml:space="preserve">
<title>intuit</title>
<path d="M91.1,11.7h-4c-0.9,0-1.4,0.3-1.4,1.3v17.9c-1.8,1.6-4.1,2.5-6.5,2.7c-3.4,0-4.1-2.1-4.1-5.2V13c0-1-0.5-1.3-1.4-1.3h-3.9
	c-0.9,0-1.4,0.3-1.4,1.3v16.6c0,6,2.6,10,8.8,10c3.2,0,6.4-1.1,8.9-3.2l0.1,1.4c0,0.7,0.6,1.2,1.3,1.1c0,0,0,0,0.1,0h3.6
	c1.1,0,1.5-0.4,1.5-1.6V13C92.5,12,92,11.7,91.1,11.7z"/>
<path d="M5.7,11.7H1c-0.7,0-1,0.4-1,1.1v24.7c0,1,0.4,1.4,1.5,1.4h3.9c1,0,1.4-0.4,1.4-1.4V12.9c0.1-0.5-0.3-1-0.9-1.1
	C5.9,11.7,5.8,11.7,5.7,11.7z"/>
<path d="M105.3,11.7h-4.7c-0.7,0-1,0.4-1,1.1v24.7c0,1,0.4,1.4,1.5,1.4h3.9c1,0,1.4-0.4,1.4-1.4V12.9c0.1-0.5-0.3-1-0.9-1.1
	C105.4,11.7,105.3,11.7,105.3,11.7z"/>
<path d="M29.3,11.1c-3.3,0-6.5,1.2-9.1,3.2l-0.1-1.5c0-0.8-0.6-1.1-1.3-1.1h-3.6c-0.7-0.1-1.3,0.3-1.4,1c0,0.1,0,0.3,0,0.4v24.4
	c-0.1,0.7,0.4,1.3,1.1,1.3c0.1,0,0.2,0,0.3,0h4.1c1,0,1.3-0.5,1.3-1.4V19.7c1.8-1.6,4.2-2.5,6.6-2.7c3.4,0,4.2,2.2,4.2,5.3v15.2
	c0,1,0.3,1.5,1.3,1.5h4c1,0,1.3-0.5,1.3-1.5V21.1C38.2,15,35.6,11.1,29.3,11.1z"/>
<circle cx="52.6" cy="4.1" r="4.1"/>
<path d="M62.6,11.7H42.7c-0.7,0-1.1,0.2-1.1,1v3.9c0,0.6,0.4,1,0.9,1.1c0.1,0,0.1,0,0.2,0h6.5v19.8c0,1,0.5,1.4,1.5,1.4h3.9
	c1,0,1.5-0.4,1.5-1.4V17.7h6.5c0.5,0.1,1-0.3,1.1-0.9c0-0.1,0-0.1,0-0.2v-4C63.7,12,63.3,11.7,62.6,11.7z"/>
<circle cx="122.1" cy="4.1" r="4.1"/>
<path d="M133.1,16.6v-3.9c0-0.7-0.4-1-1.1-1h-19.9c-0.7,0-1.1,0.2-1.1,1v3.9c0,0.6,0.4,1,0.9,1.1c0.1,0,0.1,0,0.2,0h6.5v19.8
	c0,1,0.4,1.4,1.4,1.4h3.9c1,0,1.4-0.4,1.4-1.4V17.7h6.6c0.5,0.1,1-0.3,1.1-0.9C133.1,16.7,133.1,16.7,133.1,16.6z"/>
<path d="M133.9,35.1c-1.1,0-2,0.9-2,2s0.9,2,2,2s2-0.9,2-2S135,35.1,133.9,35.1z M133.9,38.8c-0.9,0-1.7-0.7-1.8-1.6
	c0-0.9,0.7-1.7,1.6-1.8c0.9,0,1.7,0.7,1.8,1.6c0,0,0,0,0,0C135.6,38,134.8,38.8,133.9,38.8C133.9,38.8,133.9,38.8,133.9,38.8z"/>
<path d="M134.8,36.6c0-0.5-0.3-0.7-0.8-0.7h-0.9v2.3h0.4v-1h0.4l0.6,1h0.4l-0.7-1C134.5,37.3,134.8,37.1,134.8,36.6
	C134.8,36.7,134.8,36.7,134.8,36.6z M133.8,37h-0.4v-0.7h0.5c0.2,0,0.5,0,0.5,0.4S134.2,37,133.8,37L133.8,37z"/>
</svg>
