<?xml version="1.0" encoding="utf-8"?>
<!-- Generator: Adobe Illustrator 23.0.4, SVG Export Plug-In . SVG Version: 6.00 Build 0)  -->
<svg version="1.1" id="图层_1" xmlns="http://www.w3.org/2000/svg" xmlns:xlink="http://www.w3.org/1999/xlink" x="0px" y="0px"
	 viewBox="0 0 186 50" enable-background="new 0 0 186 50" xml:space="preserve">
<g>
	<g>
		<path fill="#FFFFFF" d="M76.6,25.8"/>
		<path fill="#FFFFFF" d="M76.6,32.8"/>
		<path fill="#FFFFFF" d="M70.5,36.4h-0.2c-3.8,0-6.8-3.1-6.8-6.8V29c0-3.8,3.1-6.8,6.8-6.8h0.2c2.6,0,4.9,1.4,6,3.6l4.5-2.6
			c-2.1-3.6-6-6.1-10.4-6.1h-0.8c-6.6,0-12,5.4-12,12v0.4c0,6.6,5.4,12,12,12h0.8c4.5,0,8.4-2.5,10.4-6.1l-4.5-2.6
			C75.4,34.9,73.1,36.4,70.5,36.4z"/>
		<path fill="#FFFFFF" d="M126.4,17.6v14.1c0,2.6-2.1,4.7-4.7,4.7h-0.4c-2.6,0-4.7-2.1-4.7-4.7V17.6h-5.6v14.5
			c0,5.2,4.2,9.4,9.4,9.4h2.3c5.2,0,9.4-4.2,9.4-9.4V17.6H126.4z"/>
		<path fill="#FFFFFF" d="M97.5,17c-2.9,0-5.4,1.3-6.9,3.4V8.3h-5.6v32.6h5.6v0V28c0-2.9,2-5.9,5.6-5.9h0c3.2,0,5.2,2.5,5.2,5.7v13
			h5.6V26.6C106.9,20.5,102.8,17,97.5,17z"/>
		<path fill="#FFFFFF" d="M164.2,17c-3.8,0-6.8,1.6-8.4,4.1c-1.3-2.6-3.6-4.1-7.4-4.1c-2.5,0-5,1.3-6.5,3.7v-3.2h-5.6v23.3h3.9h1.7
			h0V27.8c0-2.9,2-5.7,5.2-5.7l0,0c3.5,0,5.2,2.4,5.2,5.7v13h2.1h2.7h0.8V28c0-3.1,2-5.9,5.1-5.9h0c4.1,0,5.2,2.9,5.2,6.2v12.6h5.6
			V26.6C173.6,20.5,169.6,17,164.2,17z"/>
		<rect x="177.9" y="17.6" fill="#FFFFFF" width="5.6" height="23.3"/>
		<rect x="177.5" y="8.3" fill="#FFFFFF" width="6.3" height="5.9"/>
	</g>
	<g>
		<circle opacity="0" fill="#FFFFFF" cx="26.1" cy="25.3" r="24"/>
		<path fill="#FFFFFF" d="M19.5,28.2l6.6-4.1l-12.5-7.8v25.3c1.7,1.6,3.7,2.9,5.9,3.8V28.2z"/>
		<path fill="#FFFFFF" d="M45.9,11.7C41.4,5.2,34,1.3,26.1,1.3c-13.2,0-24,10.8-24,24c0,8.7,4.6,16.3,11.5,20.5v0
			c1.8,1.1,3.8,2,5.9,2.6v0v-6.2v0c-2.2-0.9-4.2-2.2-5.9-3.8c-3.4-3.3-5.6-7.9-5.6-13c0-10,8.1-18.1,18.1-18.1
			c5.9,0,11.4,2.9,14.8,7.7l5-3.1C45.9,11.8,45.9,11.7,45.9,11.7z"/>
		<path fill="#FFFFFF" d="M38.6,16.4l-12.5,7.8l6.6,4.1v17.2c2.2-0.9,4.2-2.2,5.9-3.8V16.4z"/>
		<path fill="#37435C" d="M34.5,29.4"/>
		<path fill="#FFFFFF" d="M41.7,34.4L41.7,34.4c-0.9,1.5-1.9,2.8-3.1,3.9c-1.7,1.6-3.7,2.9-5.9,3.8v6.2c2.1-0.6,4.1-1.5,5.9-2.6
			c3.3-2,6.1-4.8,8.2-8.2L41.7,34.4z"/>
	</g>
</g>
</svg>
