<?xml version="1.0" encoding="utf-8"?>
<!-- Generator: Adobe Illustrator 23.1.1, SVG Export Plug-In . SVG Version: 6.00 Build 0)  -->
<svg version="1.1" id="图层_1" xmlns="http://www.w3.org/2000/svg" xmlns:xlink="http://www.w3.org/1999/xlink" x="0px" y="0px"
	 width="192.1px" height="50px" viewBox="0 0 192.1 50" style="enable-background:new 0 0 192.1 50;" xml:space="preserve">
<style type="text/css">
	.st0{fill:#20252D;}
	.st1{fill:#FFFFFF;fill-opacity:0;}
	.st2{fill:#467FF7;}
	.st3{fill:#37435C;}
</style>
<g>
	<g>
		<path class="st0" d="M83.2,24.4"/>
		<path class="st0" d="M83.2,31.1"/>
		<path class="st0" d="M77.4,34.5h-0.2c-3.6,0-6.5-2.9-6.5-6.5v-0.6c0-3.6,2.9-6.5,6.5-6.5h0.2c2.5,0,4.6,1.3,5.7,3.4l4.3-2.5
			c-2-3.4-5.7-5.8-9.9-5.8h-0.8c-6.3,0-11.4,5.1-11.4,11.4V28c0,6.3,5.1,11.4,11.4,11.4h0.8c4.3,0,8-2.4,9.9-5.8l-4.3-2.5
			C82.1,33.1,79.9,34.5,77.4,34.5z"/>
		<path class="st0" d="M130.5,16.7V30c0,2.5-2,4.5-4.5,4.5h-0.4c-2.5,0-4.5-2-4.5-4.5V16.7h-5.3v13.8c0,4.9,4,8.9,8.9,8.9h2.2
			c4.9,0,8.9-4,8.9-8.9V16.7H130.5z"/>
		<path class="st0" d="M103.1,16.1c-2.8,0-5.1,1.2-6.5,3.2V7.8h-5.3v30.9h5.3l0,0V26.5c0-2.8,1.9-5.6,5.3-5.6l0,0
			c3,0,4.9,2.4,4.9,5.4v12.3h5.3V25.2C112,19.4,108.1,16.1,103.1,16.1z"/>
		<path class="st0" d="M166.4,16.1c-3.6,0-6.5,1.5-8,3.9c-1.2-2.5-3.4-3.9-7-3.9c-2.4,0-4.7,1.2-6.2,3.5v-3h-5.3v22.1h3.7h1.6l0,0
			V26.3c0-2.8,1.9-5.4,4.9-5.4l0,0c3.3,0,4.9,2.3,4.9,5.4v12.3h2h2.6h0.8V26.5c0-2.9,1.9-5.6,4.8-5.6l0,0c3.9,0,4.9,2.8,4.9,5.9v12
			h5.3V25.2C175.3,19.4,171.5,16.1,166.4,16.1z"/>
		<rect x="179.4" y="16.7" class="st0" width="5.3" height="22.1"/>
		<rect x="179" y="7.8" class="st0" width="6" height="5.6"/>
	</g>
	<g>
		<circle class="st1" cx="26.1" cy="25.3" r="24"/>
		<path class="st2" d="M19.5,28.2l6.6-4.1l-12.5-7.8v25.3c1.7,1.6,3.7,2.9,5.9,3.8V28.2z"/>
		<path class="st3" d="M45.9,11.7C41.4,5.2,34,1.3,26.1,1.3c-13.2,0-24,10.8-24,24c0,8.7,4.6,16.3,11.5,20.5l0,0
			c1.8,1.1,3.8,2,5.9,2.6l0,0v-6.2l0,0c-2.2-0.9-4.2-2.2-5.9-3.8c-3.4-3.3-5.6-7.9-5.6-13c0-10,8.1-18.1,18.1-18.1
			c5.9,0,11.4,2.9,14.8,7.7l5-3.1C45.9,11.8,45.9,11.7,45.9,11.7z"/>
		<path class="st2" d="M38.6,16.4l-12.5,7.8l6.6,4.1v17.2c2.2-0.9,4.2-2.2,5.9-3.8V16.4z"/>
		<path class="st3" d="M34.5,29.4"/>
		<path class="st3" d="M41.7,34.4L41.7,34.4c-0.9,1.5-1.9,2.8-3.1,3.9c-1.7,1.6-3.7,2.9-5.9,3.8v6.2c2.1-0.6,4.1-1.5,5.9-2.6
			c3.3-2,6.1-4.8,8.2-8.2L41.7,34.4z"/>
	</g>
</g>
</svg>
