<?xml version="1.0" encoding="utf-8"?>
<!-- Generator: Adobe Illustrator 22.0.0, SVG Export Plug-In . SVG Version: 6.00 Build 0)  -->
<svg version="1.1" id="图层_1" xmlns="http://www.w3.org/2000/svg" xmlns:xlink="http://www.w3.org/1999/xlink" x="0px" y="0px"
	 viewBox="0 0 24 24" style="enable-background:new 0 0 24 24;" xml:space="preserve">
<style type="text/css">
	.st0{fill:#666666;}
</style>
<path class="st0" d="M4,16h16c0.6,0,1,0.4,1,1v0c0,0.6-0.4,1-1,1H4c-0.6,0-1-0.4-1-1v0C3,16.4,3.4,16,4,16z M4,11h16
	c0.6,0,1,0.4,1,1v0c0,0.6-0.4,1-1,1H4c-0.6,0-1-0.4-1-1v0C3,11.4,3.4,11,4,11z M4,6h16c0.6,0,1,0.4,1,1v0c0,0.6-0.4,1-1,1H4
	C3.4,8,3,7.6,3,7v0C3,6.4,3.4,6,4,6z"/>
</svg>
