<?xml version="1.0" encoding="utf-8"?>
<!-- Generator: Adobe Illustrator 24.0.0, SVG Export Plug-In . SVG Version: 6.00 Build 0)  -->
<svg version="1.1" id="Capa_1" xmlns="http://www.w3.org/2000/svg" xmlns:xlink="http://www.w3.org/1999/xlink" x="0px" y="0px"
	 width="55px" height="55px" viewBox="0 0 55 55" style="enable-background:new 0 0 55 55;" xml:space="preserve">
<style type="text/css">
	.st0{fill:#FFC001;}
	.st1{fill:#1C1C1C;}
</style>
<circle class="st0" cx="27.5" cy="27.5" r="27.5"/>
<path class="st1" d="M38.6,13.1c-0.1-0.1-0.3-0.2-0.4-0.1l-16.4,2.1c-0.3,0-0.5,0.3-0.5,0.5v3.2V21v13.5c-1-1.2-2.5-1.9-4.2-1.9
	c-2.9,0-5.3,2.1-5.3,4.8c0,2.6,2.4,4.8,5.3,4.8s5.3-2.1,5.3-4.8c0-0.1,0-0.3,0-0.4v-0.1V21.4l15.4-2v9.7c-1-1.2-2.5-1.9-4.2-1.9
	c-2.9,0-5.3,2.1-5.3,4.8s2.4,4.8,5.3,4.8s5.3-2.1,5.3-4.7l0,0V18.9v-2.2v-3.2C38.8,13.3,38.7,13.2,38.6,13.1z"/>
</svg>
