<?xml version="1.0" encoding="utf-8"?>
<!-- Generator: Adobe Illustrator 23.0.0, SVG Export Plug-In . SVG Version: 6.00 Build 0)  -->
<svg version="1.1" id="Layer_1" xmlns="http://www.w3.org/2000/svg" xmlns:xlink="http://www.w3.org/1999/xlink" x="0px" y="0px"
	 viewBox="0 0 108.1 91.6" style="enable-background:new 0 0 108.1 91.6;" xml:space="preserve">
<title>nasa</title>
<path d="M73.2,54.8H72c0.3,1,0.6,1.9,0.9,2.8c1.4,5.1,1.1,9.1-0.6,11.3c-2,2.5-6.2,2.6-12,0.2l-0.1,0.2l0,0l-0.1,0.2l0.2,0.1
	l-0.1,0.2c2.5,1.2,5.2,1.9,8,2c1.7,0.1,3.4-0.5,4.7-1.7c1.8-1.8,2.4-5,1.7-9.5C74.3,58.6,73.8,56.7,73.2,54.8z"/>
<path d="M39.9,45.2l-0.5,1.5l1.8-0.4L40.3,44L39.9,45.2z"/>
<path d="M17.3,50.3c0,0.2,0,0.5,0,0.8c0,0.5,0.3,1.1,0.7,1.4l2.7-0.8l-1.3-2.2L17.3,50.3z"/>
<path d="M108.1,5.4L108.1,5.4l-2.5,3.3c-4.2,4.7-10.8,9.5-16.7,13.2C80.8,8.9,66.2,0,50.1,0C24.8,0,4.3,20.4,4.3,45.7
	c0,3.5,0.4,6.9,1.2,10.3c-2,1-3.9,2-5.4,3l1.1,0.4c1.5-0.9,3-1.7,4.5-2.4c2.1,8,6.2,15.3,12.1,21.1l0.8,0.8c-2,1.7-4,3.6-6,5.5
	l-0.1,1.5c1.9-2,4.2-4.1,6.9-6.3C38.1,96.6,67,95.1,84,76.4c7.6-8.4,11.8-19.3,11.9-30.6c0-6.3-1.4-12.6-4-18.3
	C99.5,20.7,105.4,13.5,108.1,5.4L108.1,5.4L108.1,5.4z M7.8,56c1.4-0.6,2.8-1.2,4.3-1.7c-0.3-0.2-0.4-0.7-0.2-1.1
	c0.1-0.1,0.2-0.2,0.3-0.2c0.5-0.2,1-0.6,1.2-1.1c-2.1,1-4,2-5.9,3C2.4,31.4,17.4,8.3,40.8,3.3c3.1-0.7,6.2-1,9.3-1
	c15,0.2,28.9,8,36.9,20.7c-1.9,1.1-3.7,2.1-5.3,2.9c-6.5,3.3-13.3,6.2-20.1,8.8c-5.8-7.2-13-13.7-20.4-17c-6.6-2.9-10-1.4-11.6,0.3
	c-3,3.3-2.8,10.5,0.5,18.5c0.3,0.2,0.4,0.5,0.4,0.8c0.7,1.6,1.5,3.3,2.4,4.8c0.4,0.7,0.8,1.3,1.1,2l-3.2,1.1l-1.6,0.5
	c0,1.1,0,2.2,0,3.5l6.2-1.5l0.2-0.6l0.1-0.2l0.1-0.2l0.1-0.2l0.2-0.7l0.1-0.2l0.1-0.2l0.2-0.8l0.3-1.2l-1.5,0.5
	c-0.5-1-1.1-1.9-1.6-3c-5.2-10.7-6.2-18.9-2.5-22c3.2-2.7,9.4-1.1,16.6,4.1c4.7,3.6,9,7.7,12.8,12.3c-4.3,1.6-8.7,3.1-13.1,4.6
	l1,2.9l0.6,1.6c1.8-0.5,3.6-1,5.4-1.5c0-0.6,0-1.2,0.2-1.7c0.6-2.3,2.9-4.4,7.4-4.1h0.2l0,0h0.2l0.6,0.1h0.2l0,0h0.2l0,0l1.4,0.2
	c1.5,0.3,1.5,0.3,2-0.2l0.4-0.3c0.1-0.1,0.3-0.2,0.5-0.1c0.2,0.1,0.2,0.3,0.2,0.4s0,0.4,0,1.2c6.8-2.4,13.3-5.6,19.3-9.6
	c-3.7,3.2-7,5.8-9.9,8l-0.5,0.4l-0.5,0.4h-1.4l0.1,0.1c0.2,0.2,0.3,0.3,0.5,0.5l-0.3,0.2l-0.3,0.2c-2.5,1.8-4.7,3.3-6.9,4.8
	c-0.5-0.8-1-1.6-1.6-2.4l-0.4-0.2l0,0l-0.3-0.1l-0.6-0.3l-0.3-0.1l0,0l-0.3-0.1c0.5,0.7,1,1.4,1.4,2.1c0.4,0.6,0.8,1.2,1.1,1.8
	l-0.6,0.4l-0.3,0.2l-0.4,0.2c-1.1-0.6-2.3-1.2-3.5-1.5c-1.9-0.6-2.5-1.4-2.6-1.9c0-0.1,0-0.2,0-0.2c0-0.7,0.4-1.3,1-1.5
	c1-0.5,2.1-0.6,3.2-0.4l0.3,0l0,0l0.3,0.1l0.6,0.2l0.2,0.1h0.1l0.3,0.1c0.7,0.3,1.3,0.6,1.9,1c0-0.8,0-1.5,0-2c0-0.3,0-0.5,0-0.7
	c-0.7,0.5-0.9,0.5-2.4,0.2L64.1,38l-0.3,0l0,0h-0.2h-0.3H63h-0.3l0,0h-0.3c-4.5-0.5-6.7,1.4-7.3,3.5c-0.1,0.4-0.2,0.8-0.2,1.2
	c0.1,1.9,1.3,3.6,3.2,4.3l1.5,0.6l0.8,0.3l-0.4,0.2l-0.4,0.2l-3.2,2l-0.3,0.2l-0.3,0.2l-0.5-0.4v0.7l-0.4,0.2l-0.4,0.2L52.4,53
	l-0.3,0.2l-0.3,0.2c-0.3-0.3-0.5-0.6-0.7-1c-0.9-2.2-2-5.1-3-7.8c-0.6-1.6-1.1-3.1-1.6-4.5c-0.4-1.2-0.8-2.1-1.1-2.8h-8.4l0.1,0.1
	c0.6,0.5,1.1,1.1,1.3,1.8c-0.2,1-0.5,2.3-1,3.8L37,44.8l0,0l-0.4,1.4l-0.1,0.2l-0.1,0.2l-0.2,0.7l-0.1,0.2l0,0l-0.1,0.2
	c-0.4,1.3-0.8,2.6-1.1,3.8c0,0,0.1,0.5-2.2,2.1c0,0,1.9,0,3.5,0c0.8,0,1.6,0,2,0l0,0c-0.2,0-1.5-1.2-0.6-3.6l0.1-0.2l0,0h5.5
	c0.8,2.3,1,2.3-0.8,3.8c0,0,5,0,8.6,0l-0.6,0.4l-0.2,0.1L50,54.6c-1.4,0.9-2.9,2-4.6,3.1c-0.7-1-1.5-1.9-2.3-2.9l-0.1-0.2h-0.2h-0.3
	c-0.2,0-0.5-0.2-0.5-0.5c-0.1-0.2,0-0.5,0.1-0.7c-0.7-0.9-1.4-1.7-2.1-2.7h-1.5l0,0L38.3,51c2,3,4,5.4,5.7,7.5v0.1
	c-8.5,5.5-16.5,11.8-23.8,18.7l-0.9-0.8C13.7,70.9,9.7,63.8,7.8,56z M77.8,42l2.4,6.2h-4.3l1-3.1l0,0L77.8,42z M63.9,50
	c0.2,0.4,0.1,0.9-0.1,1.3c-0.5,0.6-1.2,0.9-2,1c-1.4,0.3-2.9,0.2-4.3-0.4l0.4-0.3l0.4-0.3l3.4-2.2l0.4-0.2l0.4-0.2
	C63.1,49,63.6,49.4,63.9,50L63.9,50z M42.6,48h-4.3l0.3-0.9l0.6-2l0.9-2.8l0.2-0.5l0.2,0.4l1.6,4L42.6,48z M37,44.8L37,44.8z
	 M93.6,45.8c0,24-19.5,43.5-43.5,43.5c-10.8,0-21.2-4-29.1-11.2c7-5.9,15.4-12.1,24-18c1.3,1.9,3.7,5,5.4,5.3c0.4,0.1,0.8,0,1.1-0.3
	c0.3-0.2,0.5-0.6,0.5-0.9c0-0.8-1.2-1.7-2.6-2.8c-1-0.7-1.9-1.5-2.8-2.3c1.5-1,3-1.9,4.5-2.9l3.5-2.2l0.4-0.2l0.4-0.2v1
	c0.6-0.5,1.4-1,1.4-1.1c0.1,0,0.1-0.1,0.2-0.1c0.1,0,0.1,0,0.2,0c1.1,0.4,5,1.7,8.5-0.1c2.3-1.1,3.5-2.6,3.3-4.2
	c-0.2-1.2-0.9-2.3-1.8-3.1l0.3-0.2l0.3-0.2l0,0v0c0.2,0.2,0.4,0.3,0.5,0.5c0.6,0.7,1.1,1.5,1.3,2.5c0,0.1,0.1,0.3,0.1,0.4
	c0,0,0,0.1,0,0.1c0.6,1.2,1.1,2.3,1.6,3.5l0.2-0.1l0.1-0.1c0.1-0.1,0.2-0.2,0.3-0.3l0.1-0.1v-0.1l0,0l0,0l0.2-0.3
	c-1-2.2-2.1-4.4-3.4-6.5c2.1-1.4,4.3-2.9,6.4-4.3l0.5-0.3l0.5-0.3c-0.3,1.3-0.8,3.1-1.4,5.2l0,0c-0.6,2.2-1.4,4.7-2,6.9
	c0,0,0,0.1-0.2,0.5l-0.1,0.2l0,0L72,52.7L71.7,53l-0.1,0.1l-0.2,0.1c-0.3,0.2-0.6,0.5-1,0.8h1.3h2.2c0.8,0,1.6,0,2,0l0,0
	c-0.2,0-1.7-1.2-0.5-3.8h5.5c0.8,2.3,1,2.3-0.8,3.8c0,0,6.4,0,9.9,0c-0.7-0.3-1.2-0.8-1.4-1.5c-2-4.6-4.5-12.3-5.7-15h-3.8l0.5-0.4
	l0.5-0.4c3.5-2.5,6.8-5.1,9.9-7.8C92.4,34.3,93.6,40,93.6,45.8L93.6,45.8z"/>
<path d="M60.7,40.2c-0.2,0.1-0.6,0.4-0.6,0.8c0,0,0,0.1,0,0.1c1.2-0.4,2.3-0.8,3.5-1.2C62.6,39.7,61.6,39.8,60.7,40.2z"/>
<path d="M38.7,53.8c0-0.2-0.1-0.3-0.3-0.4l-0.1-0.1v0.4v0.4C38.6,54.2,38.7,54,38.7,53.8C38.7,53.8,38.7,53.8,38.7,53.8z"/>
<circle cx="50.4" cy="5.2" r="0.4"/>
<circle cx="52.8" cy="10.7" r="0.5"/>
<path d="M59.3,19.3c-0.2,0-0.4,0.2-0.4,0.4c0,0,0,0,0,0c0,0.2,0.2,0.5,0.5,0.5s0.5-0.2,0.5-0.5l0,0C59.8,19.5,59.6,19.3,59.3,19.3
	C59.4,19.3,59.4,19.3,59.3,19.3z"/>
<circle cx="48.9" cy="13.8" r="0.4"/>
<circle cx="52.8" cy="15.9" r="0.4"/>
<circle cx="47.7" cy="10.1" r="0.5"/>
<circle cx="41.8" cy="13.7" r="0.4"/>
<circle cx="42.9" cy="14.4" r="0.4"/>
<circle cx="43.9" cy="15.1" r="0.4"/>
<circle cx="42.3" cy="16.5" r="0.4"/>
<circle cx="33.8" cy="22.5" r="0.4"/>
<circle cx="35.4" cy="24.4" r="0.4"/>
<circle cx="34.2" cy="55.1" r="0.4"/>
<circle cx="34.3" cy="63.6" r="0.4"/>
<circle cx="29.6" cy="67.9" r="0.4"/>
<circle cx="23.7" cy="69.7" r="0.4"/>
<circle cx="22.5" cy="65.8" r="0.4"/>
<circle cx="22" cy="68.2" r="0.4"/>
<circle cx="17.6" cy="66.2" r="0.4"/>
<path d="M32.7,73.5c0.2,0,0.4-0.2,0.4-0.3c0,0,0,0,0,0c0-0.2-0.2-0.4-0.4-0.4c-0.2,0-0.4,0.2-0.4,0.4l0,0
	C32.4,73.4,32.5,73.5,32.7,73.5z"/>
<path d="M37.6,69.8c0-0.2-0.2-0.4-0.5-0.4s-0.5,0.2-0.5,0.4c0,0.3,0.2,0.5,0.5,0.4C37.4,70.3,37.6,70.1,37.6,69.8
	C37.6,69.8,37.6,69.8,37.6,69.8z"/>
<path d="M37.8,73.8c-0.2,0-0.4,0.2-0.4,0.4c0,0.2,0.2,0.4,0.4,0.4s0.4-0.2,0.4-0.4C38.1,73.9,38,73.8,37.8,73.8z"/>
<circle cx="56.4" cy="70" r="0.4"/>
<circle cx="47.7" cy="73.1" r="0.4"/>
<circle cx="71.1" cy="77.5" r="0.4"/>
<circle cx="72.9" cy="60.3" r="0.4"/>
<circle cx="69.4" cy="62.8" r="0.4"/>
<circle cx="72.9" cy="63.5" r="0.4"/>
<circle cx="69.4" cy="67.8" r="0.4"/>
<circle cx="78.5" cy="57.9" r="0.4"/>
<path d="M79.3,60.5c0.2,0,0.4-0.2,0.4-0.4c0,0,0,0,0,0c0-0.2-0.3-0.4-0.5-0.4c-0.2,0-0.3,0.2-0.4,0.4C78.9,60.4,79.1,60.6,79.3,60.5
	z"/>
<circle cx="85.6" cy="62.7" r="0.4"/>
<circle cx="79.3" cy="67.4" r="0.4"/>
<circle cx="83.4" cy="63.6" r="0.4"/>
<circle cx="82.6" cy="69.5" r="0.4"/>
<path d="M84.7,59.6c-0.1-0.2-0.2-0.4-0.4-0.4L84.1,58l0,0L84,59.2c-0.2,0-0.4,0.2-0.4,0.4l-1.2,0.1l1.2,0.1c0,0.2,0.2,0.4,0.4,0.4
	l0.1,1.2l0.1-1.2c0.2-0.1,0.4-0.2,0.4-0.4l1.2-0.2L84.7,59.6z"/>
<path d="M80.3,68.9l-0.1-1.2l-0.1,1.2c-0.2,0-0.4,0.2-0.4,0.4l-1.2,0.1l1.2,0.1c0,0.2,0.2,0.4,0.4,0.4l0.1,1.2l0.1-1.2
	c0.2-0.1,0.4-0.2,0.4-0.4l1.2-0.2l-1.2-0.1C80.7,69.1,80.5,68.9,80.3,68.9z"/>
<path d="M38.3,23.8l0.1,1.2l0.1-1.2c0.2-0.1,0.4-0.2,0.4-0.4l1.2-0.1L39,23.1c-0.1-0.2-0.2-0.4-0.4-0.4l-0.1-1.2l-0.1,1.2
	c-0.2,0-0.4,0.2-0.4,0.4l-1.2,0.1l1.2,0.1C37.9,23.6,38.1,23.7,38.3,23.8z"/>
<path d="M59.2,10.2l0.1,1.2l0.1-1.2c0.2-0.1,0.4-0.2,0.4-0.4L61,9.7l-1.2-0.1c-0.1-0.2-0.2-0.4-0.4-0.4L59.3,8l-0.1,1.2
	c-0.2,0-0.4,0.2-0.4,0.4l-1.2,0.1l1.2,0.1C58.8,10,58.9,10.2,59.2,10.2z"/>
<path d="M34.1,77.9L34,76.7l-0.1,1.2c-0.2,0-0.4,0.2-0.4,0.4l-1.1,0.1l1.1,0.1c0,0.2,0.2,0.4,0.5,0.4l0.2,1.2l0.1-1.2
	c0.2-0.1,0.3-0.2,0.4-0.4l1.2-0.2l-1.2-0.1C34.5,78.1,34.3,77.9,34.1,77.9z"/>
<path d="M17.6,53.1c-0.2-0.2-0.3-0.3-0.4-0.5c-0.4-0.5-0.6-1-0.6-1.6c0-0.2,0-0.3,0-0.5c-0.1-3.5,0-7.5,0-7.6l0,0
	c0,0.1,1.8,3,3.6,6.1l1.4,2.3l1.5,2.5h7c-0.9-1.3-1.5-1.6-1.5-2.4s0-1.3,0-2c0-1.2,0-2.3,0-3.4c0-2.9,0-5.3,0-6.9
	c0-0.8,0.2-0.7,1.3-1.9c0,0-2.9,0-5.1,0c0,0,1.4,1.6,1.4,2.1c0,3.3,0,6.2,0,7.5c0,0.5,0,0.8,0,0.8l0,0c0,0-0.1-0.3-0.4-0.7
	c-1.3-2.3-5.7-9.8-5.8-9.8s0.1,0-0.6,0h-0.7H13l-0.1,0.1c1.4,1.7,1.4,1.7,1.4,2.1c0,2.7-0.1,7,0,11.9c0,0.1,0,0.2,0,0.3
	c0,0.5-0.3,1.4-1.8,2.2h1.3h3.4H18l-0.3-0.3L17.6,53.1z"/>
</svg>
