<?xml version="1.0" encoding="UTF-8"?>
<svg width="100px" height="99px" viewBox="0 0 100 99" version="1.1" xmlns="http://www.w3.org/2000/svg" xmlns:xlink="http://www.w3.org/1999/xlink">
    <!-- Generator: Sketch 60 (88103) - https://sketch.com -->
    <title>Group 3</title>
    <desc>Created with Sketch.</desc>
    <defs>
        <polygon id="path-1" points="0.000136986301 0.209237838 99.7863014 0.209237838 99.7863014 97.6621622 0.000136986301 97.6621622"></polygon>
    </defs>
    <g id="Page-1" stroke="none" stroke-width="1" fill="none" fill-rule="evenodd">
        <g id="Manage-your-payment" transform="translate(-850.000000, -3510.000000)">
            <g id="Group-9" transform="translate(846.000000, 3509.000000)">
                <g id="Group-28" transform="translate(4.000000, 1.000000)">
                    <g id="Group-3" transform="translate(0.000000, 0.500000)">
                        <mask id="mask-2" fill="white">
                            <use xlink:href="#path-1"></use>
                        </mask>
                        <g id="Clip-2"></g>
                        <path d="M78.1878082,62.2434405 C76.9439726,61.3163189 75.7467123,60.4239811 74.8686301,59.7684405 C73.6056164,60.6166297 72.3412329,61.4661568 71.3028767,62.1618324 C71.7110959,63.427427 72.1823288,64.8803189 72.5768493,66.1017649 L76.8234247,66.1017649 C77.3069863,64.7331568 77.7809589,63.3913054 78.1878082,62.2434405 L78.1878082,62.2434405 Z M27.3535616,66.1526027 C27.8138356,64.7465351 28.2836986,63.3150486 28.6467123,62.2073189 C27.4686301,61.3671568 26.2193151,60.4774946 25.2549315,59.7898459 C24.0193151,60.6259946 22.77,61.4715081 21.8987671,62.0601568 C22.309726,63.6281027 22.6905479,65.0796568 22.9727397,66.1526027 L27.3535616,66.1526027 Z M60.9357534,24.0281027 C61.3206849,25.3324946 61.7467123,26.781373 62.1124658,28.0242243 L66.4220548,28.0242243 C66.7987671,26.7733459 67.2343836,25.3217919 67.6220548,24.0361297 C66.5905479,23.3217243 65.339863,22.4561432 64.2412329,21.6962514 C63.1782192,22.4454405 61.9412329,23.3190486 60.9357534,24.0281027 L60.9357534,24.0281027 Z M37.8289041,28.0081703 C38.2234247,26.8389 38.7371233,25.3110892 39.130274,24.1444946 C37.9439726,23.2481432 36.6864384,22.2956027 35.7823288,21.6133054 C34.4713699,22.5002919 33.2275342,23.3417919 32.3110959,23.9625486 C32.7110959,25.4368459 33.1220548,26.9512784 33.4083562,28.0081703 L37.8289041,28.0081703 Z M52.6165753,80.6908865 C53.000137,79.5176027 53.4932877,78.0085216 53.8809589,76.8231973 C52.6658904,75.9188189 51.4316438,74.9983865 50.5056164,74.3094 C49.2371233,75.1937108 47.9823288,76.0699946 47.0316438,76.7322243 C47.4686301,78.1583595 47.9083562,79.5992108 48.2412329,80.6908865 L52.6165753,80.6908865 Z M25.2371233,48.8235892 C24.0193151,47.9299135 22.800137,47.0349 21.9289041,46.3954135 C20.5878082,47.2783865 19.3384932,48.1038324 18.4713699,48.6737514 C18.909726,50.1988865 19.3206849,51.6357243 19.6590411,52.8170351 L24.0015068,52.8170351 C24.3823288,51.5889 24.8289041,50.1426973 25.2371233,48.8235892 L25.2371233,48.8235892 Z M39.0220548,72.4498054 C37.8987671,71.5561297 36.7138356,70.6169676 35.7987671,69.8891838 C34.5727397,70.7440622 33.3193151,71.6203459 32.3152055,72.3200351 C32.7275342,73.707373 33.160411,75.1642784 33.4932877,76.2853865 L37.8631507,76.2853865 C38.2056164,75.1482243 38.6480822,73.6873054 39.0220548,72.4498054 L39.0220548,72.4498054 Z M78.0973973,34.3361432 C76.9220548,33.3983189 75.7426027,32.4564811 74.8631507,31.7554541 C73.560411,32.6451162 72.3042466,33.5026703 71.339863,34.1608865 C71.7782192,35.6231432 72.2138356,37.0760351 72.5412329,38.1703865 L76.860411,38.1703865 C77.2220548,37.0479405 77.6645205,35.6793324 78.0973973,34.3361432 L78.0973973,34.3361432 Z M53.8686301,20.8547514 C52.7878082,20.1109135 51.5138356,19.2332919 50.409726,18.4734 C49.3042466,19.2506838 48.0453425,20.1336568 47.0412329,20.8386973 C47.4686301,22.3170081 47.8960274,23.7913054 48.1960274,24.8308054 L52.5891781,24.8308054 C52.9864384,23.5959811 53.4508219,22.1524541 53.8686301,20.8547514 L53.8686301,20.8547514 Z M76.8973973,52.7728865 L81.1124658,52.7728865 C81.5932877,51.5006027 82.1672603,49.9834946 82.579589,48.8931568 C81.300137,47.9820892 80.0508219,47.0897514 79.0836986,46.4007649 C77.909726,47.1726973 76.5672603,48.0556703 75.4987671,48.7566973 C75.9836986,50.1480486 76.4919178,51.6103054 76.8973973,52.7728865 L76.8973973,52.7728865 Z M28.5453425,34.2210892 C27.3836986,33.3434676 26.1713699,32.4270486 25.2741096,31.7487649 C23.9549315,32.6785622 22.709726,33.5588595 21.8741096,34.1488459 C22.3056164,35.7676297 22.6850685,37.1897514 22.9508219,38.1864405 L27.47,38.1864405 C27.7617808,37.1108189 28.1535616,35.6646162 28.5453425,34.2210892 L28.5453425,34.2210892 Z M64.2672603,69.9079135 C63.0015068,70.7975757 61.7521918,71.6751973 60.8960274,72.2772243 C61.3289041,73.8665757 61.7206849,75.3020757 61.9973973,76.3174946 L66.4042466,76.3174946 C66.8713699,74.9194541 67.3426027,73.5066973 67.7110959,72.4069946 C66.5261644,71.5467649 65.3658904,70.703927 64.2672603,69.9079135 L64.2672603,69.9079135 Z M49.9028767,0.209237838 C77.3384932,0.213251351 99.7905479,22.1484405 99.7864384,48.9453324 C99.7823288,75.7395486 77.3220548,97.6667108 49.8836986,97.6626973 C22.4480822,97.6586838 -0.00397260274,75.7221568 0.000136986301,48.9266027 C0.00424657534,22.1323865 22.4645205,0.205224324 49.9028767,0.209237838 L49.9028767,0.209237838 Z" id="Fill-1" fill="#F0B300" mask="url(#mask-2)"></path>
                    </g>
                </g>
            </g>
        </g>
    </g>
</svg>