<?xml version="1.0" encoding="UTF-8"?>
<svg width="99px" height="98px" viewBox="0 0 99 98" version="1.1" xmlns="http://www.w3.org/2000/svg" xmlns:xlink="http://www.w3.org/1999/xlink">
    <!-- Generator: Sketch 60 (88103) - https://sketch.com -->
    <title>Group 12</title>
    <desc>Created with Sketch.</desc>
    <defs>
        <polygon id="path-1" points="0 0.918017819 98.8178082 0.918017819 98.8178082 97.6621622 0 97.6621622"></polygon>
    </defs>
    <g id="Page-1" stroke="none" stroke-width="1" fill="none" fill-rule="evenodd">
        <g id="Manage-your-payment" transform="translate(-1037.000000, -3511.000000)">
            <g id="Group-9" transform="translate(846.000000, 3509.000000)">
                <g id="Group-12" transform="translate(191.000000, 1.000000)">
                    <g id="Group-3" transform="translate(0.000000, 0.500000)">
                        <mask id="mask-2" fill="white">
                            <use xlink:href="#path-1"></use>
                        </mask>
                        <g id="Clip-2"></g>
                        <path d="M72.3442466,60.4063216 C72.3442466,53.844227 72.3606849,47.4185919 72.3319178,40.9942946 C72.3236986,39.4076189 72.819589,37.4302946 70.0209589,37.5520378 C67.4127397,37.6670919 67.7031507,39.5601324 67.6908219,41.1775784 C67.6483562,46.617227 67.7510959,52.0608892 67.6469863,57.4978622 C67.5867123,60.6297405 69.0031507,61.4257541 72.3442466,60.4063216 M23.7771233,49.1832 L23.7606849,49.1832 C23.7606849,51.8562 23.7236986,54.5305378 23.7743836,57.2022 C23.8072603,58.9039297 23.2894521,60.9254027 26.2826027,60.8785784 C29.1593151,60.8344297 28.4415068,58.8464027 28.479863,57.3333081 C28.600411,52.6789703 28.5620548,52.6789703 33.2223288,52.0863081 C37.3387671,51.5658892 39.9606849,48.8634568 40.0771233,45.0305514 C40.1880822,41.3394568 37.9510959,38.4644432 33.9072603,37.8222811 C31.2387671,37.3981865 28.4428767,37.443673 25.7428767,37.6858216 C25.0168493,37.7500378 23.940137,39.2591189 23.8661644,40.1701865 C23.6278082,43.1575784 23.7771233,46.1770784 23.7771233,49.1832 M43.3908219,49.4066189 C43.7606849,51.3612 43.9483562,53.3692946 44.5373973,55.2583216 C45.71,59.0082811 49.5154795,61.4752541 53.7332877,61.4685784 C57.4524658,61.4618757 61.1620548,59.0925649 62.2182192,55.8282405 C62.4716438,55.0456054 62.0415068,54.0529297 61.9278082,53.1565784 C60.7921918,53.3478892 59.6209589,53.4294973 58.5415068,53.7840243 C58.1264384,53.9191459 58.0360274,54.8462676 57.6031507,55.1111595 C56.2291781,55.9580108 54.5784932,57.4791324 53.3826027,57.2195919 C51.7990411,56.8730919 49.8456164,55.3359162 49.3086301,53.8696459 C48.5045205,51.6809432 48.5141096,49.0868757 48.6976712,46.7028486 C48.8784932,44.3362135 49.8305479,42.0859703 52.6743836,41.4933081 C55.340137,40.9367676 56.8415068,42.2291189 58.140137,44.4285243 C58.5415068,45.1081459 60.449726,44.9369027 61.670274,45.1576459 C61.8141096,44.191727 62.3415068,43.0853351 62.0332877,42.2866459 C60.940137,39.4638081 58.6771233,37.8490378 55.5949315,37.5145784 C48.1250685,36.7025108 43.6264384,41.1789162 43.3908219,49.4066189 M49.5579452,97.6624297 C22.2963014,96.7232676 0.248356164,77.7152676 0.00178082192,49.3972541 C-0.233835616,22.2939973 20.7442466,0.930064865 49.4278082,0.918017819 C77.449726,0.904645946 98.740137,21.5287541 98.8184314,49.1056054 C98.8949315,76.0978216 78.1647945,96.4209162 49.5579452,97.6624297" id="Fill-1" fill="#849561" mask="url(#mask-2)"></path>
                    </g>
                    <path d="M43.2989691,49.4627569 C43.5302319,41.2519138 47.9457381,36.7846811 55.2775759,37.5937495 C58.3028162,37.9288587 60.5240148,39.5403202 61.5956221,42.3573736 C61.8994907,43.1530911 61.3804939,44.258551 61.2406606,45.2211555 C60.0426655,45.0021997 58.1697056,45.173092 57.7757521,44.493528 C56.499773,42.2999645 55.0274894,41.0102613 52.4096482,41.5643264 C49.6197044,42.1557741 48.6852413,44.4027414 48.5077605,46.764527 C48.3275906,49.1436689 48.3168342,51.7310858 49.1060858,53.9166387 C49.6344944,55.3799044 51.5518245,56.9139302 53.1061257,57.2597202 C54.2799189,57.5187289 55.9001031,55.9993891 57.248688,55.1556082 C57.6722217,54.889924 57.7623066,53.9660372 58.1697056,53.8298574 C59.229212,53.4773919 60.3788033,53.3946159 61.4920917,53.2050323 C61.605034,54.0995469 62.0272231,55.0901884 61.7784811,55.8712199 C60.7418321,59.1275201 57.1007874,61.493311 53.4503308,61.5 C49.3104576,61.5066619 45.5739497,59.0447441 44.4243584,55.3024688 C43.8448569,53.4173126 43.6619979,51.4133328 43.2989691,49.4627569" id="Fill-4" fill="#FFFFFF"></path>
                    <path d="M30.9600367,41.3676791 C28.4114507,41.0333314 28.5206363,42.8669786 28.5068153,44.725636 C28.4902302,46.6158854 28.4985228,48.2415526 31.3014145,48.1165012 C33.7200835,48.0085622 35.4076234,47.2240297 35.3993612,44.74933 C35.3924203,42.2851609 33.6800027,41.3742607 30.9600367,41.3676791 L30.9600367,41.3676791 Z M23.7579316,48.9918605 C23.7579316,46.0340677 23.6072831,43.064428 23.8477679,40.1237476 C23.921019,39.2286434 25.0073469,37.7438236 25.7412401,37.6793234 C28.4653524,37.4423841 31.2848294,37.3963125 33.9785356,37.813589 C38.0571025,38.4454273 40.3154482,41.2742197 40.2021163,44.9059732 C40.0860202,48.6772577 37.4393053,51.3362436 33.2874873,51.8482958 C28.5855948,52.4314298 28.6242935,52.4314298 28.502669,57.0109407 C28.4625882,58.4997095 29.1881889,60.4557754 26.2844041,60.4992143 C23.2659052,60.5452858 23.7883377,58.5563117 23.7551674,56.8832567 C23.7040298,54.2545464 23.7413464,51.6232034 23.7413464,48.9918605 L23.7579316,48.9918605 Z" id="Fill-6" fill="#FFFFFF"></path>
                    <path d="M72.1466488,60.0865399 C68.4946735,61.0937933 66.9464396,60.3072897 67.0123219,57.2128276 C67.1261186,51.8408096 67.0138193,46.4621823 67.0602363,41.0875206 C67.0737123,39.4893981 66.7562794,37.6189736 69.6071859,37.505294 C72.6662205,37.3850053 72.124189,39.3387067 72.1331729,40.9064265 C72.1646167,47.2539733 72.1466488,53.6028421 72.1466488,60.0865399" id="Fill-8" fill="#FFFFFF"></path>
                    <path d="M30.4050355,41.540912 C33.2519442,41.5476919 35.0442815,42.4860309 35.0515464,45.0244277 C35.0601941,47.5736724 33.2938956,48.3818372 30.7623457,48.4930277 C27.8286411,48.6218459 27.8199615,46.9472091 27.8373206,45.0000201 C27.8517866,43.0853746 27.7375053,41.1964928 30.4050355,41.540912" id="Fill-10" fill="#849561"></path>
                </g>
            </g>
        </g>
    </g>
</svg>