<?xml version="1.0" encoding="iso-8859-1"?>
<!-- Generator: Adobe Illustrator 19.0.0, SVG Export Plug-In . SVG Version: 6.00 Build 0)  -->
<svg xmlns="http://www.w3.org/2000/svg" xmlns:xlink="http://www.w3.org/1999/xlink" version="1.1" id="Layer_1" x="0px" y="0px" viewBox="0 0 511.998 511.998" style="enable-background:new 0 0 511.998 511.998;" xml:space="preserve" width="512" height="512">
<g>
	<g>
		<g>
			<g>
				<path style="fill:#75CFF2;" d="M500.969,190.629l-15.41-8.066c-1.188-0.622-2.158-1.591-2.779-2.779l-11.265-21.52      c-0.622-1.188-1.592-2.158-2.779-2.779l-21.517-11.262c-1.188-0.622-2.158-1.591-2.78-2.78l-11.263-21.518      c-0.622-1.188-1.592-2.158-2.78-2.78l-21.517-11.262c-1.188-0.622-2.158-1.592-2.78-2.78L394.84,81.588      c-0.622-1.188-1.592-2.158-2.78-2.78l-21.514-11.259c-1.188-0.622-2.158-1.592-2.78-2.78l-11.259-21.513      c-0.622-1.188-1.592-2.158-2.78-2.78l-21.516-11.261c-1.188-0.622-2.158-1.592-2.78-2.78l-8.063-15.405      c-2.06-3.935-7.346-4.743-10.487-1.602L9.428,310.881c-2.571,2.571-2.571,6.739,0,9.309l71.183,71.183      c0.04-0.041,0.077-0.083,0.117-0.123c11.051-11.051,28.968-11.051,40.02,0c11.051,11.051,11.051,28.968,0,40.02      c-0.04,0.04-0.083,0.077-0.123,0.117l71.183,71.183c2.571,2.571,6.739,2.571,9.309,0l301.454-301.454      C505.712,197.975,504.905,192.689,500.969,190.629z"/>
				<path style="fill:#EDEDED;" d="M381.273,254.52L207.898,427.896c-3.803,3.803-9.969,3.803-13.772,0l-100.73-100.73      c-3.803-3.803-3.803-9.969,0-13.772l173.376-173.376c3.803-3.803,9.969-3.803,13.772,0l100.73,100.73      C385.077,244.551,385.077,250.717,381.273,254.52z"/>
				<path style="fill:#F469CA;" d="M471.516,158.264c-0.622-1.188-1.592-2.158-2.779-2.779l-21.517-11.262      c-1.188-0.622-2.158-1.591-2.78-2.78l-11.263-21.518c-0.622-1.188-1.592-2.158-2.78-2.78l-21.517-11.262      c-1.188-0.622-2.158-1.592-2.78-2.78L394.84,81.588c-0.622-1.188-1.592-2.158-2.78-2.78l-21.514-11.259      c-1.188-0.622-2.158-1.592-2.78-2.78l-11.259-21.513c-0.622-1.188-1.592-2.158-2.78-2.78l-21.516-11.261      c-1.188-0.622-2.158-1.592-2.78-2.78l-8.063-15.405c-2.06-3.935-7.346-4.743-10.487-1.602l-57.021,57.021L445.55,258.137      l57.022-57.022c3.141-3.141,2.333-8.427-1.602-10.487l-15.41-8.066c-1.188-0.622-2.158-1.591-2.779-2.779L471.516,158.264z"/>
				<path style="fill:#EA57B6;" d="M500.969,190.629l-15.41-8.066c-1.188-0.622-2.158-1.591-2.779-2.779l-11.265-21.52      c-0.622-1.188-1.592-2.158-2.779-2.779l-21.517-11.262c-1.188-0.622-2.158-1.591-2.78-2.78l-11.263-21.518      c-0.622-1.188-1.592-2.158-2.78-2.78l-21.517-11.262c-1.188-0.622-2.158-1.592-2.78-2.78L394.84,81.588      c-0.622-1.188-1.592-2.158-2.78-2.78l-21.514-11.259c-1.188-0.622-2.158-1.592-2.78-2.78l-11.259-21.513      c-0.622-1.188-1.592-2.158-2.78-2.78l-21.516-11.261c-1.188-0.622-2.158-1.592-2.78-2.78l-8.063-15.405      c-2.06-3.935-7.346-4.743-10.487-1.602l-30.407,30.407l191.689,191.689l30.408-30.408      C505.712,197.975,504.905,192.689,500.969,190.629z"/>
			</g>
		</g>
	</g>
	<g>
		<g>
			<path d="M162.67,314.872c1.379-1.379,3.496-0.542,4.875,0.837c1.526,1.527,2.167,3.644,0.887,4.924l-7.19,7.19l28.217,28.216     c1.33,1.33,0.395,3.644-1.182,5.22c-1.625,1.625-3.891,2.511-5.22,1.182l-28.217-28.216l-7.239,7.239     c-1.279,1.279-3.348,0.688-4.924-0.887c-1.379-1.379-2.216-3.496-0.837-4.875L162.67,314.872z"/>
			<path d="M171.138,310.343c-1.379-1.378-0.395-3.545,1.23-5.17c1.576-1.576,3.792-2.61,5.171-1.231l32.008,32.008     c1.33,1.33,0.395,3.645-1.182,5.22c-1.625,1.625-3.891,2.511-5.22,1.182L171.138,310.343z"/>
			<path d="M199.304,289.464c-3.3,3.299-3.349,6.993,0.493,10.833l13.738,13.739c3.842,3.841,7.534,3.792,10.932,0.394     c4.481-4.481,1.675-8.076-0.245-10.292c-1.429-1.625-0.542-3.497,1.132-5.17c2.217-2.216,3.891-2.61,6.402-0.099     c5.958,5.958,4.875,14.625-2.02,21.52c-6.204,6.205-14.379,8.273-22.603,0.049L193.395,306.7     c-8.224-8.224-6.105-16.448,0.099-22.652c6.845-6.845,15.364-8.076,21.076-2.364c2.561,2.561,2.118,4.185-0.049,6.352     c-1.822,1.822-3.693,2.61-5.22,1.182C207.676,287.79,203.983,284.786,199.304,289.464z"/>
			<path d="M212.5,268.982c-1.378-1.379-0.394-3.546,1.231-5.171c1.575-1.575,3.792-2.61,5.171-1.231l13.443,13.444l-3.841-25.115     c-0.197-1.182,0.147-2.019,0.837-2.708c1.625-1.625,5.367-2.019,6.992-0.394c0.345,0.344,0.739,0.837,0.837,1.625l2.217,19.845     l27.084,5.613c0.59,0.098,1.083,0.395,1.477,0.788c1.576,1.576,1.231,5.171-0.64,7.042c-0.837,0.837-2.019,1.33-3.446,0.985     l-23.293-4.777l0.689,6.008l9.651,9.651c1.329,1.33,0.394,3.645-1.183,5.22c-1.625,1.625-3.89,2.511-5.219,1.182L212.5,268.982z"/>
			<path d="M260.559,247.907l7.484-7.485c1.281-1.28,3.251-0.788,4.58,0.542c1.133,1.132,1.822,3.102,0.443,4.481l-7.484,7.485     l9.898,9.898l13.936-13.936c1.28-1.28,3.348-0.689,4.875,0.837c1.329,1.33,2.117,3.397,0.738,4.776l-17.531,17.531     c-1.428,1.428-3.496,2.117-4.825,0.788l-31.959-31.958c-1.329-1.33-0.641-3.397,0.788-4.826l17.53-17.53     c1.379-1.379,3.446-0.591,4.776,0.739c1.526,1.527,2.117,3.594,0.838,4.875l-13.937,13.936L260.559,247.907z"/>
			<path d="M286.263,191.278c1.379-1.379,3.496-0.542,4.875,0.837c1.526,1.527,2.166,3.645,0.886,4.925l-7.189,7.189l28.217,28.216     c1.33,1.33,0.395,3.644-1.182,5.22c-1.625,1.625-3.891,2.512-5.221,1.182l-28.216-28.217l-7.239,7.239     c-1.28,1.28-3.349,0.689-4.924-0.887c-1.379-1.378-2.216-3.496-0.837-4.875L286.263,191.278z"/>
		</g>
	</g>
	<g>
		<path d="M298.947,122.141c1.464,1.464,3.384,2.197,5.303,2.197s3.839-0.732,5.303-2.197c2.929-2.929,2.929-7.678,0-10.606    l-19.896-19.896c-2.929-2.929-7.678-2.929-10.606,0c-2.929,2.929-2.929,7.678,0,10.606L298.947,122.141z"/>
		<path d="M345.372,168.566c1.464,1.464,3.384,2.197,5.303,2.197s3.839-0.732,5.303-2.197c2.929-2.929,2.929-7.678,0-10.606    l-19.896-19.896c-2.929-2.929-7.678-2.929-10.606,0c-2.929,2.929-2.929,7.678,0,10.606L345.372,168.566z"/>
		<path d="M428.931,230.912c-2.929-2.929-7.678-2.929-10.606,0c-2.929,2.929-2.929,7.678,0,10.606l2.32,2.32    c1.464,1.464,3.384,2.197,5.303,2.197s3.839-0.732,5.303-2.197c2.929-2.929,2.929-7.678,0-10.606L428.931,230.912z"/>
		<path d="M382.507,184.488c-2.929-2.929-7.678-2.929-10.606,0c-2.929,2.929-2.929,7.678,0,10.606l19.896,19.896    c1.464,1.464,3.384,2.197,5.303,2.197s3.839-0.732,5.303-2.197c2.929-2.929,2.929-7.678,0-10.606L382.507,184.488z"/>
		<path d="M511.838,194.335c-0.674-4.411-3.437-8.28-7.39-10.35c0,0,0,0,0,0l-15.155-7.933l-11.131-21.265    c-1.335-2.552-3.391-4.608-5.947-5.947l-21.262-11.128l-11.131-21.265c-1.336-2.553-3.392-4.608-5.946-5.946l-21.263-11.128    l-11.127-21.261c-1.337-2.555-3.394-4.611-5.948-5.948l-21.259-11.126l-11.125-21.258c-1.336-2.553-3.392-4.609-5.947-5.948    l-21.262-11.128l-7.93-15.151c-2.069-3.954-5.938-6.717-10.35-7.391c-4.411-0.677-8.929,0.807-12.085,3.963    c0,0-57.02,57.02-57.021,57.021s-0.002,0.002-0.004,0.004L4.126,305.578C1.466,308.238,0,311.774,0,315.536    s1.465,7.298,4.125,9.958l71.183,71.183c1.407,1.407,3.314,2.197,5.303,2.197h0.023c1.997-0.006,3.909-0.808,5.313-2.229    l0.122-0.127c3.924-3.906,9.131-6.056,14.67-6.056c5.555,0,10.778,2.164,14.707,6.092c8.088,8.088,8.109,21.236,0.062,29.351    c-0.055,0.052-0.117,0.111-0.153,0.147c-1.421,1.404-2.223,3.316-2.229,5.313c-0.006,1.997,0.785,3.914,2.197,5.326l71.183,71.183    c2.66,2.66,6.196,4.125,9.958,4.125s7.298-1.465,9.958-4.125l301.455-301.455C511.031,203.263,512.512,198.746,511.838,194.335z     M445.55,247.531l-3.406-3.406c-2.929-2.929-7.678-2.929-10.606,0c-2.929,2.929-2.929,7.678,0,10.606l3.406,3.406l-238.48,238.48    l-65.762-65.761c9.083-13.879,7.533-32.728-4.649-44.91c-6.761-6.762-15.751-10.485-25.313-10.485    c-7.07,0-13.828,2.036-19.603,5.83l-65.755-65.756L253.861,77.055l3.406,3.406c1.464,1.465,3.384,2.197,5.303,2.197    c1.919,0,3.839-0.732,5.303-2.197c2.929-2.929,2.929-7.677,0-10.606l-3.406-3.406l50.835-50.835l7.483,14.298    c1.336,2.554,3.393,4.61,5.947,5.948l21.262,11.128l11.125,21.259c1.337,2.554,3.394,4.61,5.948,5.947l21.259,11.125l11.127,21.26    c1.336,2.555,3.394,4.612,5.948,5.949l21.263,11.128l11.129,21.263c1.336,2.553,3.392,4.61,5.947,5.948l21.263,11.128    l11.132,21.266c1.336,2.553,3.392,4.609,5.946,5.946l14.304,7.487L445.55,247.531z"/>
		<path d="M285.847,134.715c-3.256-3.256-7.585-5.05-12.189-5.05s-8.934,1.793-12.189,5.049l-75.803,75.803    c-2.929,2.929-2.929,7.678,0,10.606c2.929,2.929,7.678,2.929,10.606,0l75.803-75.803c0.542-0.542,1.16-0.656,1.583-0.656    s1.041,0.114,1.583,0.656l100.73,100.729c0.873,0.873,0.873,2.293,0,3.166l-75.803,75.803c-2.929,2.929-2.929,7.678,0,10.606    c1.464,1.464,3.384,2.197,5.303,2.197s3.839-0.732,5.303-2.197l75.803-75.803c6.721-6.721,6.721-17.657,0-24.378L285.847,134.715z    "/>
		<path d="M275.492,349.695l-72.897,72.897c-0.873,0.872-2.292,0.872-3.166,0L98.699,321.862c-0.542-0.542-0.655-1.159-0.655-1.582    s0.114-1.041,0.656-1.583l72.897-72.897c2.929-2.929,2.929-7.678,0-10.606c-2.929-2.929-7.678-2.929-10.606,0L88.093,308.09    c-3.256,3.256-5.049,7.585-5.049,12.189s1.793,8.934,5.049,12.189l100.73,100.731c3.36,3.36,7.774,5.04,12.189,5.04    c4.414,0,8.829-1.68,12.189-5.041l72.897-72.897c2.929-2.929,2.929-7.678,0-10.606    C283.17,346.766,278.421,346.766,275.492,349.695z"/>
	</g>
</g>















</svg>
