<?xml version="1.0" encoding="utf-8"?>
<!-- Generator: Adobe Illustrator 24.0.0, SVG Export Plug-In . SVG Version: 6.00 Build 0)  -->
<svg version="1.1" id="图层_1" xmlns="http://www.w3.org/2000/svg" xmlns:xlink="http://www.w3.org/1999/xlink" x="0px" y="0px"
	 width="30px" height="30px" viewBox="0 0 30 30" style="enable-background:new 0 0 30 30;" xml:space="preserve">
<style type="text/css">
	.st0{fill:#E7ECED;}
	.st1{fill:#6F8BB7;}
</style>
<g>
	<path class="st0" d="M10.5,23.5L6.1,26c-0.3,0.1-0.5,0.3-0.7,0.5C8,28.8,11.5,30,15,30c3.7,0,7-1.3,9.6-3.5
		c-0.2-0.2-0.5-0.4-0.8-0.5L19,23.6c-0.6-0.3-1-0.9-1-1.6v-1.9c0.1-0.2,0.3-0.4,0.5-0.6c0.6-0.9,1.1-1.9,1.5-3
		c0.6-0.2,1.1-0.8,1.1-1.4v-2c0-0.4-0.2-0.8-0.5-1.1V9c0,0,0.6-4.5-5.5-4.5C8.9,4.5,9.5,9,9.5,9v2.9C9.2,12.2,9,12.6,9,13.1v2
		c0,0.5,0.3,1,0.7,1.3c0.5,2.2,1.8,3.8,1.8,3.8v1.8C11.5,22.6,11.1,23.2,10.5,23.5L10.5,23.5z M10.5,23.5"/>
	<path class="st1" d="M15.3,0C7-0.1,0.1,6.5,0,14.7c-0.1,4.7,2,8.9,5.3,11.7c0.2-0.2,0.5-0.4,0.7-0.5l4.5-2.4c0.6-0.3,1-0.9,1-1.6
		v-1.8c0,0-1.3-1.6-1.8-3.8C9.2,16.1,9,15.6,9,15.1v-2c0-0.4,0.2-0.8,0.5-1.1V9c0,0-0.6-4.5,5.5-4.5c6.1,0,5.5,4.5,5.5,4.5v2.9
		c0.3,0.3,0.5,0.7,0.5,1.1v2c0,0.7-0.5,1.2-1.1,1.4c-0.3,1.1-0.8,2.1-1.5,3c-0.2,0.2-0.3,0.4-0.5,0.6V22c0,0.7,0.4,1.3,1,1.6
		l4.8,2.4c0.3,0.1,0.5,0.3,0.8,0.5c3.2-2.7,5.3-6.7,5.4-11.3C30.1,7,23.5,0.1,15.3,0L15.3,0z M15.3,0"/>
</g>
</svg>
